<svg width="22" height="21" viewBox="0 0 22 21" fill="none" xmlns="http://www.w3.org/2000/svg">
<g clip-path="url(#clip0_4_50498)">
<path d="M1.83729 3.2663C1.61265 3.53046 1.38735 3.79397 1.16798 4.05155C0.737154 3.61676 0.36166 3.23863 0 2.87434C0.916996 1.95602 1.85244 1.01992 2.77602 0.0956819C3.70026 1.0219 4.63505 1.958 5.55072 2.87566C5.19302 3.23336 4.81489 3.61083 4.40382 4.0219C4.16601 3.75642 3.91041 3.47118 3.59025 3.11479V6.90464C5.31555 5.17671 7.08234 3.40859 8.8386 1.6497C8.37549 1.6497 7.85112 1.61742 7.33333 1.65958C6.88472 1.69581 6.57115 1.54825 6.27866 1.21755C5.92358 0.816367 5.51976 0.458001 5.08235 0.0278295C5.24769 0.015313 5.33794 0.00279655 5.42885 0.00279655C9.82148 0.00213779 14.2141 0.000161507 18.6067 0.00279655C20.0086 0.00345531 21.0079 0.980399 21.0099 2.37368C21.0171 6.78936 21.0125 11.2044 21.0125 15.6201C21.0125 15.6813 21.0059 15.7432 20.9209 15.8631C20.5231 15.4468 20.143 15.0114 19.72 14.622C19.4453 14.3691 19.3347 14.1056 19.357 13.734C19.3887 13.2143 19.365 12.6912 19.365 12.1747C17.6008 13.9409 15.8544 15.6886 14.112 17.433H17.9091C17.554 17.1431 17.2615 16.9046 16.9743 16.6701C17.4453 16.2169 17.8287 15.848 18.2016 15.4883C19.0837 16.3803 20.0152 17.3216 20.9401 18.2564C20.0441 19.1458 19.1047 20.0786 18.1752 21.0008C17.8261 20.6451 17.4545 20.267 17.0586 19.8638C17.2813 19.6675 17.5349 19.4435 17.7885 19.2195C17.7727 19.1807 17.7569 19.1418 17.7404 19.1036H17.3775C13.0507 19.1036 8.72398 19.1049 4.39723 19.1029C3.21278 19.1029 2.35903 18.5285 2.03294 17.4837C1.94335 17.1965 1.91765 16.8803 1.917 16.5766C1.90975 12.2709 1.91238 7.96525 1.91238 3.65958C1.91238 3.54364 1.91238 3.42704 1.91238 3.3111C1.88669 3.29595 1.861 3.28145 1.83531 3.2663H1.83729ZM3.56258 16.1833C8.40975 11.3355 13.249 6.49489 18.0935 1.6497C17.4032 1.6497 16.6937 1.64377 15.9842 1.65695C15.8933 1.65892 15.7879 1.74193 15.7154 1.81439C11.7167 5.80912 7.72003 9.80649 3.72596 13.8065C3.65415 13.879 3.57115 13.9844 3.56917 14.0753C3.55599 14.7841 3.56192 15.4929 3.56192 16.1826L3.56258 16.1833ZM19.365 2.958C14.5296 7.79199 9.69499 12.626 4.86693 17.4527C5.52569 17.4527 6.22464 17.4587 6.92358 17.4455C7.01449 17.4435 7.11858 17.3572 7.19104 17.2841C11.1963 13.2828 15.1996 9.27882 19.1996 5.27289C19.2721 5.20043 19.3557 5.09502 19.357 5.00411C19.3702 4.30583 19.3643 3.60688 19.3643 2.958H19.365ZM19.365 7.58778C16.0758 10.8743 12.7833 14.1642 9.49144 17.4527C10.1588 17.4527 10.857 17.4587 11.556 17.4455C11.6462 17.4435 11.749 17.3533 11.8221 17.2801C14.2846 14.8223 16.7444 12.3618 19.2016 9.89871C19.2734 9.82625 19.3557 9.72019 19.3577 9.62862C19.3709 8.92967 19.365 8.23073 19.365 7.58712V7.58778ZM3.56258 11.5232C6.861 8.22612 10.1462 4.94153 13.4387 1.6497C12.7793 1.6497 12.1028 1.64377 11.4262 1.65629C11.334 1.65826 11.2266 1.73534 11.1548 1.80649C8.67589 4.28014 6.20026 6.75642 3.72727 9.23534C3.65547 9.3078 3.5718 9.41255 3.56983 9.50411C3.55665 10.182 3.56258 10.8598 3.56258 11.5232Z" fill="#999999"/>
</g>
<defs>
<clipPath id="clip0_4_50498">
<rect width="21.0145" height="21" fill="white"/>
</clipPath>
</defs>
</svg>
