<svg width="390" height="78" viewBox="0 0 390 78" fill="none" xmlns="http://www.w3.org/2000/svg">
    <g style="mix-blend-mode:color-dodge">
        <path d="M-587.312 222.055C-536.705 185.651 -480.862 162.807 -419.199 184.983C-364.295 204.74 -321.615 250.636 -279.414 288.876C-231.853 331.977 -171.775 408.499 -98.7644 393.457C-57.6697 384.987 -21.5189 353.528 9.18742 326.741C76.9624 267.597 136.372 199.086 197.305 133.183C254.337 71.4733 317.544 27.0789 370.737 112.968C406.554 170.776 434.361 262.215 515.591 265.427C587.684 268.285 641.858 210.706 706.838 189.469C806.508 156.903 907.618 252.618 977.228 308.841" stroke="#666666" stroke-miterlimit="10"/>
        <path d="M-587.312 201.986C-535.369 161.514 -477.503 134.643 -411.898 157.967C-356.535 177.64 -310.684 222.493 -269.756 262.82C-227.201 304.773 -170.086 387.178 -100.412 373.117C-61.4246 365.252 -27.1303 333.73 1.61514 308.153C67.3458 249.635 126.047 182.918 185.436 118.183C239.818 58.9144 303.692 4.88174 357.637 90.3742C392.933 146.305 419.738 235.574 499.445 236.679C570.912 237.66 630.51 185.776 697.242 168.002C801.105 140.318 902.611 231.068 977.207 289.043" stroke="#666666" stroke-miterlimit="10"/>
        <path d="M-587.312 179.622C-530.008 134.539 -468.867 110.297 -398.818 141.59C-340.889 167.48 -290.157 216.464 -245.329 259.836C-205.11 298.765 -155.275 364.459 -91.8597 343.993C-53.1639 331.497 -19.5163 298.118 9.35427 271.289C67.2206 217.528 120.998 159.302 175.59 102.265C227.615 47.8781 290.738 -5.02789 346.665 70.8055C386.445 124.755 411.769 211.04 491.184 214.983C561.922 218.488 630.322 171.819 698.514 159.302C801.647 140.359 897.563 211.457 977.228 266.241" stroke="#666666" stroke-miterlimit="10"/>
        <path d="M-587.312 154.775C-525.69 107.752 -462.901 87.078 -390.912 124.212C-335.758 152.647 -284.859 198.439 -239.488 240.226C-197.204 279.175 -145.283 346.288 -81.3878 316.581C-48.0323 301.081 -20.5801 271.561 5.62033 246.589C60.7331 194.017 112.863 138.273 166.682 84.4077C222.358 28.6853 285.44 -14.5199 343.202 59.5611C382.961 110.569 411.603 190.867 486.991 194.204C556.352 197.292 625.253 164.059 692.945 153.002C797.434 135.937 890.199 189.218 977.228 240.56" stroke="#666666" stroke-miterlimit="10"/>
        <path d="M-587.312 127.905C-516.241 76.626 -448.445 65.0267 -372.764 112.738C-318.381 147.014 -268.108 193.453 -219.441 235.323C-178.805 270.288 -133.1 325.176 -76.2354 293.382C-45.7794 276.359 -20.4342 246.005 3.82625 221.45C55.4762 169.149 105.77 115.575 158.922 64.7764C213.993 12.1415 277.033 -25.8482 335.65 40.6599C379.415 90.3115 409.725 169.504 484.926 176.68C551.199 183.001 623.417 157.091 688.606 146.994C792.782 130.867 884.442 167.689 977.186 212.646" stroke="#666666" stroke-miterlimit="10"/>
        <path d="M-587.312 99.5117C-510.316 47.7113 -439.517 42.1621 -362.355 96.3616C-304.134 137.251 -251.816 188.926 -196.453 233.738C-158.383 264.53 -116.266 306.755 -68.6839 271.373C-37.2267 247.987 -11.5477 212.751 14.5693 184.045C58.7305 135.54 103.997 87.6829 152.581 43.5807C212.116 -10.4728 276.678 -36.0079 336.631 29.1442C380.521 76.8347 414.147 151.27 486.261 159.344C554.516 166.979 628.32 149.059 695.928 139.775C795.348 126.132 883.837 148.35 977.207 182.918" stroke="#666666" stroke-miterlimit="10"/>
        <path d="M-587.312 70.0337C-499.532 15.1458 -424.914 20.9872 -344.331 85.3256C-283.19 134.143 -231.081 190.95 -167.353 237.013C-123.63 268.598 -92.1099 286.435 -52.2043 242.416C15.6124 167.605 70.5374 82.3424 149.994 17.837C208.319 -29.4988 272.485 -47.1481 330.602 7.94844C379.707 54.4916 412.75 125.944 483.633 142.717C549.071 158.176 631.198 142.926 696.992 133.955C794.096 120.708 881.73 128.489 977.228 152.021" stroke="#666666" stroke-miterlimit="10"/>
        <path d="M-587.312 39.9715C-489.018 -17.3781 -408.977 1.2516 -326.099 74.665C-266.731 127.258 -217.355 188.154 -149.976 231.36C-100.517 263.091 -74.483 268.703 -40.6477 218.175C12.9632 138.127 66.9286 56.3064 145.029 -2.73303C208.173 -50.4862 272.152 -61.2092 333.856 -6.15439C385.235 39.7003 421.803 113.468 494.459 129.699C558.897 144.094 634.098 137.251 699.057 128.406C793.366 115.555 881.96 109.755 977.228 120.374" stroke="#666666" stroke-miterlimit="10"/>
        <path d="M-587.312 9.805C-480.173 -49.3388 -396.357 -20.1946 -311.435 60.7292C-251.336 117.995 -201.793 187.946 -127.802 228.543C-72.8768 258.689 -53.602 243.021 -27.4015 191.346C14.2773 109.171 66.9912 26.1191 144.195 -27.4128C209.55 -72.7459 275.656 -74.1437 337.048 -22.0513C390.596 23.4071 429.605 95.2558 501.343 115.408C655.209 158.635 822.654 94.0249 977.228 88.6634" stroke="#666666" stroke-miterlimit="10"/>
        <path d="M-587.312 -20.0068C-534.014 -48.4 -483.907 -65.2565 -424.268 -44.5822C-374.933 -27.4754 -334.527 8.42813 -298.334 44.9992C-238.632 105.374 -187.587 186.611 -108.047 222.493C-48.3869 249.405 -34.2645 213.147 -14.1343 162.557C18.6788 80.0265 68.2219 -4.52719 145.634 -52.8436C314.352 -158.176 375.243 54.9504 509.479 101.16C666.244 155.13 823.926 87.0362 977.228 57.3495" stroke="#666666" stroke-miterlimit="10"/>
        <path d="M-587.312 -48.9841C-531.719 -78.3995 -480.486 -94.7971 -419.762 -72.4539C-368.821 -53.7198 -327.643 -15.438 -290.741 23.3445C-232.708 84.3241 -172.693 189.886 -86.1231 214.169C-25.5241 231.172 -15.9701 174.469 -0.616925 128.823C26.2511 48.9213 72.5608 -39.179 150.036 -81.4454C310.868 -169.191 391.869 28.101 513.296 83.8651C672.606 157.028 826.868 82.0084 977.207 26.9745" stroke="#666666" stroke-miterlimit="10"/>
        <path d="M-587.312 -76.6262C-531.177 -107.168 -480.611 -123.753 -418.823 -102.12C-367.59 -84.1783 -325.724 -44.1441 -289.302 -5.13212C-230.205 58.1841 -166.852 178.453 -74.9629 196.395C-12.5073 208.599 -3.74595 146.201 9.89666 99.3448C33.3227 18.9635 75.5022 -70.013 156.461 -107.398C317.523 -181.771 404.385 7.63541 523.184 68.8863C585.035 100.763 665.117 117.098 734.019 106C821.36 91.9388 901.234 40.1801 977.228 -1.81507" stroke="#666666" stroke-miterlimit="10"/>
        <path d="M-587.312 -102.495C-527.526 -137.063 -469.743 -156.987 -403.554 -127.112C-353.885 -104.685 -314.48 -63.4622 -278.872 -23.4488C-225.511 36.5085 -158.258 162.828 -68.4963 172.299C-0.929915 179.434 7.60196 105.645 22.079 55.8267C44.462 -21.1749 84.764 -103.726 165.89 -133.433C325.742 -191.993 418.173 -16.3975 533.51 52.2176C591.793 86.8903 667.975 110.631 736.146 102.14C827.472 90.7497 906.512 24.6589 977.186 -28.6435" stroke="#666666" stroke-miterlimit="10"/>
        <path d="M-587.312 -126.09C-530.864 -162.056 -475.292 -187.09 -408.602 -160.158C-355.158 -138.565 -312.603 -92.7316 -275.889 -49.9019C-223.404 11.3281 -157.403 137.043 -64.1573 139.254C2.32436 140.819 14.632 65.9657 30.3189 15.9803C54.5793 -61.2508 92.9413 -136.166 178.03 -158.009C340.97 -199.858 431.441 -39.304 548.029 37.7185C605.102 75.437 681.221 106.542 750.749 96.5076C841.678 83.3645 914.731 7.78152 977.207 -52.8435" stroke="#666666" stroke-miterlimit="10"/>
        <path d="M-587.312 -146.931C-535.495 -184.504 -481.675 -215.984 -415.778 -193.912C-364.42 -176.722 -323.972 -134.623 -289.406 -94.6927C-232.792 -29.3111 -175.843 86.9945 -78.3839 94.4214C-4.28833 100.054 14.9657 28.0385 36.2849 -28.9356C65.3641 -106.667 105.896 -172.487 194.948 -184.524C352.818 -205.866 443.79 -70.1172 553.473 15.3335C608.461 58.1632 682.911 99.1779 754.858 92.1683C850.294 82.8638 920.53 -5.8831 977.207 -73.9141" stroke="#666666" stroke-miterlimit="10"/>
        <path d="M-587.312 -163.371C-535.745 -199.357 -482.572 -228.981 -417.989 -207.953C-367.695 -191.576 -327.664 -151.333 -293.516 -112.613C-238.507 -50.2776 -180.286 69.3869 -85.6225 72.6622C-12.4238 75.1865 12.6294 10.3474 38.8716 -46.6476C72.5192 -119.685 118.057 -186.548 204.419 -198.21C356.761 -218.78 451.925 -91.9599 560.044 -10.8484C613.092 28.9354 687.917 69.4077 756.047 68.0725C851.295 66.1949 921.844 -24.4087 977.207 -90.5412" stroke="#666666" stroke-miterlimit="10"/>
        <path d="M-587.312 -174.615C-536.559 -209.35 -484.158 -238.161 -420.847 -219.009C-371.929 -204.218 -332.483 -166.542 -298.877 -129.658C-244.744 -70.2217 -186.774 48.191 -95.1765 48.7543C-23.3547 49.1924 7.22648 -7.96947 38.5794 -63.6502C76.8789 -131.66 127.152 -196.917 210.447 -208.349C357.282 -228.481 456.473 -114.741 564.654 -39.033C617.18 -2.27414 691.192 38.7406 756.193 44.5402C850.961 52.9893 922.658 -38.5114 977.186 -102.266" stroke="#666666" stroke-miterlimit="10"/>
        <path d="M-587.312 -181.583C-538.624 -214.858 -486.577 -243.627 -425.77 -228.189C-373.932 -215.046 -332.754 -175.846 -297.458 -137.898C-243.806 -80.2145 -190.007 26.9327 -100.371 22.9481C-32.554 19.9439 2.01151 -31.5435 37.4322 -82.2173C80.9258 -144.469 133.431 -202.841 213.076 -214.149C357.7 -234.698 459.018 -136.375 571.538 -66.237C623.522 -33.8174 689.482 4.63125 749.372 20.1317C846.455 45.2496 920.384 -45.7297 977.207 -109.985" stroke="#666666" stroke-miterlimit="10"/>
        <path d="M-587.312 -185.171C-539.959 -217.945 -489.018 -247.34 -429.212 -235.177C-379.418 -225.038 -338.949 -190.157 -304.259 -155.13C-249.855 -100.221 -199.207 -1.60639 -112.365 -5.46586C-46.4887 -8.38654 -6.87505 -51.7378 33.427 -98.4478C81.7184 -154.4 137.457 -207.556 214.035 -218.696C352.547 -238.849 458.684 -160.241 572.518 -97.6968C629.008 -66.6541 688.418 -28.7061 747.724 -3.58829C843.201 36.8631 918.256 -50.6738 977.186 -114.532" stroke="#666666" stroke-miterlimit="10"/>
    </g>
</svg>

