<svg width="24" height="24" viewBox="0 0 24 24" fill="none" xmlns="http://www.w3.org/2000/svg">
<path d="M22.9991 9.71047C23.0485 8.27913 22.7355 6.85849 22.0891 5.58047C21.6505 5.05607 21.0418 4.70218 20.3691 4.58047C17.5866 4.328 14.7926 4.22452 11.9991 4.27047C9.2157 4.22243 6.43176 4.32257 3.65905 4.57047C3.11087 4.67019 2.60357 4.92731 2.19905 5.31047C1.29905 6.14047 1.19905 7.56047 1.09905 8.76047C0.953962 10.918 0.953962 13.0829 1.09905 15.2405C1.12798 15.9159 1.22854 16.5863 1.39905 17.2405C1.51963 17.7455 1.76357 18.2128 2.10905 18.6005C2.51632 19.0039 3.03543 19.2757 3.59905 19.3805C5.75497 19.6466 7.92727 19.7569 10.0991 19.7105C13.5991 19.7605 16.669 19.7105 20.299 19.4305C20.8765 19.3321 21.4102 19.06 21.8291 18.6505C22.109 18.3704 22.3181 18.0276 22.4391 17.6505C22.7967 16.5531 22.9723 15.4046 22.959 14.2505C22.9991 13.6905 22.9991 10.3105 22.9991 9.71047ZM9.73905 14.8505V8.66047L15.659 11.7705C13.9991 12.6905 11.809 13.7305 9.73905 14.8505Z" fill="white"/>
</svg>
