<svg width="15" height="15" viewBox="0 0 15 15" fill="none" xmlns="http://www.w3.org/2000/svg">
<g clip-path="url(#clip0_4_57677)">
<path d="M7.2 14.4078C11.1764 14.4078 14.4 11.1842 14.4 7.20777C14.4 3.23132 11.1764 0.0078125 7.2 0.0078125C3.22355 0.0078125 0 3.23132 0 7.20777C0 11.1842 3.22355 14.4078 7.2 14.4078Z" fill="#333333"/>
<path d="M0.000781059 21.5997C3.97723 21.5997 7.20078 18.3762 7.20078 14.3997C7.20078 10.4233 3.97723 7.19971 0.000781059 7.19971C-3.97567 7.19971 -7.19922 10.4233 -7.19922 14.3997C-7.19922 18.3762 -3.97567 21.5997 0.000781059 21.5997Z" fill="#141414"/>
<path d="M14.4012 21.5997C18.3776 21.5997 21.6012 18.3762 21.6012 14.3997C21.6012 10.4233 18.3776 7.19971 14.4012 7.19971C10.4247 7.19971 7.20117 10.4233 7.20117 14.3997C7.20117 18.3762 10.4247 21.5997 14.4012 21.5997Z" fill="#141414"/>
<path d="M0.000781059 7.1998C3.97723 7.1998 7.20078 3.97625 7.20078 -0.000195503C7.20078 -3.97665 3.97723 -7.2002 0.000781059 -7.2002C-3.97567 -7.2002 -7.19922 -3.97665 -7.19922 -0.000195503C-7.19922 3.97625 -3.97567 7.1998 0.000781059 7.1998Z" fill="#141414"/>
<path d="M14.4012 7.1998C18.3776 7.1998 21.6012 3.97625 21.6012 -0.000195503C21.6012 -3.97665 18.3776 -7.2002 14.4012 -7.2002C10.4247 -7.2002 7.20117 -3.97665 7.20117 -0.000195503C7.20117 3.97625 10.4247 7.1998 14.4012 7.1998Z" fill="#141414"/>
</g>
<defs>
<clipPath id="clip0_4_57677">
<rect width="14.4" height="14.4" fill="white"/>
</clipPath>
</defs>
</svg>
