<svg width="7" height="7" viewBox="0 0 7 7" fill="none" xmlns="http://www.w3.org/2000/svg">
<g clip-path="url(#clip0_4_57684)">
<path d="M3.36 6.72389C5.21568 6.72389 6.72 5.21956 6.72 3.36389C6.72 1.50821 5.21568 0.00390625 3.36 0.00390625C1.50432 0.00390625 0 1.50821 0 3.36389C0 5.21956 1.50432 6.72389 3.36 6.72389Z" fill="#333333"/>
<path d="M0.000625134 10.0804C1.8563 10.0804 3.36063 8.57603 3.36063 6.72035C3.36063 4.86467 1.8563 3.36035 0.000625134 3.36035C-1.85505 3.36035 -3.35938 4.86467 -3.35938 6.72035C-3.35938 8.57603 -1.85505 10.0804 0.000625134 10.0804Z" fill="#141414"/>
<path d="M6.72133 10.0804C8.57701 10.0804 10.0813 8.57603 10.0813 6.72035C10.0813 4.86467 8.57701 3.36035 6.72133 3.36035C4.86565 3.36035 3.36133 4.86467 3.36133 6.72035C3.36133 8.57603 4.86565 10.0804 6.72133 10.0804Z" fill="#141414"/>
<path d="M0.000625134 3.36014C1.8563 3.36014 3.36063 1.85581 3.36063 0.000136614C3.36063 -1.85554 1.8563 -3.35986 0.000625134 -3.35986C-1.85505 -3.35986 -3.35938 -1.85554 -3.35938 0.000136614C-3.35938 1.85581 -1.85505 3.36014 0.000625134 3.36014Z" fill="#141414"/>
<path d="M6.72133 3.36014C8.57701 3.36014 10.0813 1.85581 10.0813 0.000136614C10.0813 -1.85554 8.57701 -3.35986 6.72133 -3.35986C4.86565 -3.35986 3.36133 -1.85554 3.36133 0.000136614C3.36133 1.85581 4.86565 3.36014 6.72133 3.36014Z" fill="#141414"/>
</g>
<defs>
<clipPath id="clip0_4_57684">
<rect width="6.72" height="6.72" fill="white"/>
</clipPath>
</defs>
</svg>
