<svg width="73" height="15" viewBox="0 0 73 15" fill="none" xmlns="http://www.w3.org/2000/svg">
<path d="M69.8318 14.3321V8.66064C69.8318 8.00545 69.6203 7.46629 69.1971 7.04315C68.7876 6.62001 68.2553 6.40844 67.6001 6.40844C67.1633 6.40844 66.7743 6.50399 66.4331 6.69508C66.0918 6.88618 65.8256 7.15235 65.6345 7.49359C65.4434 7.83483 65.3479 8.22385 65.3479 8.66064L64.4675 8.16925C64.4675 7.41852 64.6313 6.75651 64.9589 6.18322C65.2865 5.59628 65.7369 5.13902 66.3102 4.81142C66.8971 4.47018 67.5523 4.29956 68.2758 4.29956C69.0128 4.29956 69.668 4.49066 70.2413 4.87285C70.8146 5.24139 71.265 5.72595 71.5926 6.32654C71.9202 6.91348 72.084 7.52771 72.084 8.16925V14.3321H69.8318ZM63.0957 14.3321V4.50431H65.3479V14.3321H63.0957Z" fill="white"/>
<path d="M58.318 14.3322V4.5044H60.5702V14.3322H58.318ZM59.4441 2.70264C59.0619 2.70264 58.7412 2.57297 58.4818 2.31363C58.2361 2.05428 58.1133 1.73351 58.1133 1.35132C58.1133 0.969129 58.2361 0.648361 58.4818 0.389016C58.7412 0.129672 59.0619 0 59.4441 0C59.84 0 60.1607 0.129672 60.4064 0.389016C60.6521 0.648361 60.775 0.969129 60.775 1.35132C60.775 1.73351 60.6521 2.05428 60.4064 2.31363C60.1607 2.57297 59.84 2.70264 59.4441 2.70264Z" fill="white"/>
<path d="M51.9251 14.5368C50.9424 14.5368 50.0551 14.3184 49.2635 13.8816C48.4854 13.4312 47.8644 12.817 47.4003 12.0389C46.9498 11.2609 46.7246 10.3873 46.7246 9.4182C46.7246 8.44907 46.9498 7.58231 47.4003 6.81793C47.8507 6.0399 48.4581 5.42566 49.2225 4.97522C50.0005 4.52478 50.8605 4.29956 51.8023 4.29956C52.7168 4.29956 53.5222 4.51113 54.2183 4.93427C54.9281 5.35741 55.4809 5.93752 55.8767 6.67461C56.2862 7.41169 56.491 8.25115 56.491 9.19298C56.491 9.35677 56.4773 9.5274 56.45 9.70484C56.4364 9.86864 56.4091 10.0529 56.3681 10.2577H48.3011V8.41495H55.2011L54.3616 9.15203C54.3343 8.55144 54.2183 8.0464 54.0135 7.63691C53.8088 7.22742 53.5153 6.91348 53.1331 6.69508C52.7646 6.47669 52.3073 6.36749 51.7613 6.36749C51.1881 6.36749 50.6898 6.49034 50.2667 6.73603C49.8436 6.98173 49.516 7.32979 49.2839 7.78023C49.0519 8.21702 48.9359 8.74254 48.9359 9.35677C48.9359 9.97101 49.0587 10.5102 49.3044 10.9743C49.5501 11.4384 49.8982 11.8001 50.3486 12.0594C50.799 12.3051 51.3177 12.428 51.9047 12.428C52.4097 12.428 52.8738 12.3392 53.2969 12.1618C53.7337 11.9843 54.1023 11.725 54.4026 11.3838L55.8358 12.8374C55.358 13.3971 54.7779 13.8202 54.0954 14.1069C53.413 14.3935 52.6895 14.5368 51.9251 14.5368Z" fill="white"/>
<path d="M41.3975 14.3321V0.409424H43.6497V14.3321H41.3975ZM39.043 6.55179V4.50433H46.0043V6.55179H39.043Z" fill="white"/>
<path d="M32.1417 14.5368C31.2545 14.5368 30.4492 14.3116 29.7257 13.8612C29.016 13.4107 28.4495 12.8033 28.0263 12.0389C27.6169 11.2609 27.4121 10.3942 27.4121 9.43867C27.4121 8.46954 27.6169 7.60279 28.0263 6.8384C28.4495 6.06037 29.016 5.44613 29.7257 4.99569C30.4492 4.5316 31.2545 4.29956 32.1417 4.29956C32.8925 4.29956 33.5545 4.46336 34.1278 4.79095C34.7147 5.10489 35.1788 5.54168 35.52 6.10132C35.8613 6.66096 36.0319 7.29567 36.0319 8.00545V10.8309C36.0319 11.5407 35.8613 12.1754 35.52 12.7351C35.1924 13.2947 34.7352 13.7383 34.1482 14.0659C33.5613 14.3799 32.8925 14.5368 32.1417 14.5368ZM32.5103 12.4075C33.3429 12.4075 34.0117 12.1277 34.5168 11.568C35.0355 11.0084 35.2948 10.2918 35.2948 9.4182C35.2948 8.83126 35.1788 8.31257 34.9467 7.86213C34.7147 7.41169 34.3871 7.06362 33.964 6.81793C33.5545 6.55859 33.0699 6.42891 32.5103 6.42891C31.9643 6.42891 31.4797 6.55859 31.0566 6.81793C30.6471 7.06362 30.3195 7.41169 30.0738 7.86213C29.8418 8.31257 29.7257 8.83126 29.7257 9.4182C29.7257 10.0051 29.8418 10.5238 30.0738 10.9743C30.3195 11.4247 30.6471 11.7796 31.0566 12.0389C31.4797 12.2846 31.9643 12.4075 32.5103 12.4075ZM35.1515 14.3321V11.6909L35.5405 9.29535L35.1515 6.9203V4.50431H37.4037V14.3321H35.1515Z" fill="white"/>
<path d="M22.0616 14.3321V0.409424H24.3138V14.3321H22.0616ZM19.707 6.55179V4.50433H26.6684V6.55179H19.707Z" fill="white"/>
<path d="M14.9846 14.5368C14.4386 14.5368 13.9131 14.4686 13.4081 14.3321C12.903 14.1819 12.4389 13.9772 12.0158 13.7179C11.5926 13.4449 11.2241 13.1173 10.9102 12.7351L12.3434 11.3019C12.6846 11.6977 13.0736 11.998 13.5104 12.2027C13.9609 12.3938 14.4659 12.4894 15.0255 12.4894C15.5306 12.4894 15.9128 12.4143 16.1721 12.2642C16.4315 12.114 16.5611 11.8956 16.5611 11.609C16.5611 11.3087 16.4383 11.0766 16.1926 10.9128C15.9469 10.749 15.6261 10.6125 15.2303 10.5033C14.8481 10.3805 14.4386 10.2577 14.0018 10.1348C13.5787 10.012 13.1692 9.84816 12.7733 9.64342C12.3911 9.42502 12.0772 9.13155 11.8315 8.76301C11.5858 8.39447 11.463 7.91673 11.463 7.32979C11.463 6.70191 11.6063 6.16274 11.8929 5.7123C12.1932 5.26186 12.6095 4.9138 13.1419 4.6681C13.6879 4.42241 14.3362 4.29956 15.087 4.29956C15.8786 4.29956 16.5748 4.44288 17.1754 4.72953C17.7896 5.00252 18.3015 5.41884 18.711 5.97847L17.2777 7.41169C16.9911 7.0568 16.6635 6.79063 16.295 6.61318C15.9264 6.43574 15.5033 6.34702 15.0255 6.34702C14.5751 6.34702 14.227 6.41526 13.9813 6.55176C13.7356 6.68826 13.6128 6.88618 13.6128 7.14552C13.6128 7.41852 13.7356 7.63009 13.9813 7.78023C14.227 7.93038 14.541 8.06005 14.9232 8.16925C15.319 8.27845 15.7285 8.4013 16.1516 8.53779C16.5884 8.66064 16.9979 8.83809 17.3801 9.07013C17.776 9.28853 18.0967 9.58882 18.3424 9.97101C18.5881 10.3396 18.711 10.8241 18.711 11.4247C18.711 12.3802 18.3765 13.1377 17.7077 13.6974C17.0389 14.257 16.1312 14.5368 14.9846 14.5368Z" fill="white"/>
<path d="M0 14.3322V0H2.35457V14.3322H0ZM1.61749 14.3322V12.1824H9.64351V14.3322H1.61749ZM1.61749 8.0465V5.97857H8.94738V8.0465H1.61749ZM1.61749 2.14983V0H9.54114V2.14983H1.61749Z" fill="white"/>
</svg>
