<svg width="82" height="82" viewBox="0 0 82 82" fill="none" xmlns="http://www.w3.org/2000/svg">
<rect x="0.5" y="0.5" width="81" height="81" rx="40.5" stroke="url(#paint0_linear_4_51334)"/>
<rect x="0.5" y="0.5" width="81" height="81" rx="40.5" stroke="url(#paint1_linear_4_51334)"/>
<rect x="10.5" y="10.5" width="61" height="61" rx="30.5" stroke="url(#paint2_linear_4_51334)"/>
<rect x="10.5" y="10.5" width="61" height="61" rx="30.5" stroke="url(#paint3_linear_4_51334)"/>
<path d="M28.8922 36.1057C30.8839 38.0974 34.113 38.0974 36.1047 36.1057C36.3494 35.861 36.5641 35.5975 36.7487 35.32C37.6624 36.694 39.2247 37.5995 40.9984 37.5995C42.7724 37.5995 44.3349 36.6938 45.2486 35.3195C45.4332 35.5972 45.648 35.8608 45.893 36.1058C47.8846 38.0974 51.1138 38.0974 53.1054 36.1058C55.0971 34.1141 55.0971 30.8849 53.1054 28.8933L52.6079 28.3957C51.9703 27.7581 51.1055 27.3999 50.2038 27.3999H31.7938C30.8921 27.3999 30.0273 27.7581 29.3897 28.3957L28.8922 28.8932C26.9005 30.8849 26.9005 34.114 28.8922 36.1057Z" fill="#A685FA"/>
<path d="M29.0984 39.3547C31.526 40.5591 34.4601 40.3946 36.7494 38.8614C37.9639 39.674 39.4255 40.1495 40.9984 40.1495C42.5716 40.1495 44.0332 39.6739 45.2478 38.8612C47.5369 40.3945 50.4708 40.5591 52.8984 39.3551V52.0499H53.3234C54.0276 52.0499 54.5984 52.6207 54.5984 53.3249C54.5984 54.0291 54.0276 54.5999 53.3234 54.5999H45.6734C44.9693 54.5999 44.3984 54.0291 44.3984 53.3249V47.3749C44.3984 46.6707 43.8276 46.0999 43.1234 46.0999H38.8734C38.1693 46.0999 37.5984 46.6707 37.5984 47.3749V53.3249C37.5984 54.0291 37.0276 54.5999 36.3234 54.5999H28.6734C27.9693 54.5999 27.3984 54.0291 27.3984 53.3249C27.3984 52.6207 27.9693 52.0499 28.6734 52.0499H29.0984V39.3547Z" fill="#A685FA"/>
<defs>
<linearGradient id="paint0_linear_4_51334" x1="6.75" y1="86.5" x2="85.75" y2="-5.5" gradientUnits="userSpaceOnUse">
<stop stop-color="#A685FA"/>
<stop offset="0.323723" stop-color="#A685FA" stop-opacity="0"/>
</linearGradient>
<linearGradient id="paint1_linear_4_51334" x1="81.75" y1="-10.5" x2="6.75" y2="82" gradientUnits="userSpaceOnUse">
<stop stop-color="#A685FA"/>
<stop offset="0.576615" stop-color="#A685FA" stop-opacity="0"/>
</linearGradient>
<linearGradient id="paint2_linear_4_51334" x1="3.25" y1="13.5" x2="71.75" y2="72" gradientUnits="userSpaceOnUse">
<stop stop-color="#A685FA"/>
<stop offset="0.323723" stop-color="#A685FA" stop-opacity="0"/>
</linearGradient>
<linearGradient id="paint3_linear_4_51334" x1="84.25" y1="86" x2="12.25" y2="35" gradientUnits="userSpaceOnUse">
<stop stop-color="#A685FA"/>
<stop offset="0.576615" stop-color="#A685FA" stop-opacity="0"/>
</linearGradient>
</defs>
</svg>
