<svg width="52" height="52" viewBox="0 0 52 52" fill="none" xmlns="http://www.w3.org/2000/svg">
<rect width="52" height="52" rx="26" fill="#141414"/>
<path d="M34.4686 16.0001H17.5286C17.3382 15.9975 17.1491 16.0324 16.9722 16.1028C16.7952 16.1733 16.6339 16.2779 16.4974 16.4107C16.3609 16.5434 16.2519 16.7018 16.1766 16.8767C16.1013 17.0517 16.0612 17.2397 16.0586 17.4301V34.5701C16.0612 34.7606 16.1013 34.9486 16.1766 35.1235C16.2519 35.2985 16.3609 35.4568 16.4974 35.5896C16.6339 35.7224 16.7952 35.827 16.9722 35.8975C17.1491 35.9679 17.3382 36.0028 17.5286 36.0001H34.4686C34.659 36.0028 34.8481 35.9679 35.025 35.8975C35.202 35.827 35.3633 35.7224 35.4998 35.5896C35.6363 35.4568 35.7453 35.2985 35.8206 35.1235C35.8959 34.9486 35.936 34.7606 35.9386 34.5701V17.4301C35.936 17.2397 35.8959 17.0517 35.8206 16.8767C35.7453 16.7018 35.6363 16.5434 35.4998 16.4107C35.3633 16.2779 35.202 16.1733 35.025 16.1028C34.8481 16.0324 34.659 15.9975 34.4686 16.0001ZM22.0886 32.7401H19.0886V23.7401H22.0886V32.7401ZM20.5886 22.4801C20.1749 22.4801 19.7781 22.3158 19.4855 22.0232C19.193 21.7307 19.0286 21.3339 19.0286 20.9201C19.0286 20.5064 19.193 20.1096 19.4855 19.8171C19.7781 19.5245 20.1749 19.3601 20.5886 19.3601C20.8083 19.3352 21.0308 19.357 21.2415 19.424C21.4522 19.4911 21.6463 19.6018 21.8113 19.7491C21.9762 19.8964 22.1081 20.0768 22.1985 20.2786C22.2888 20.4804 22.3355 20.699 22.3355 20.9201C22.3355 21.1412 22.2888 21.3599 22.1985 21.5617C22.1081 21.7635 21.9762 21.9439 21.8113 22.0912C21.6463 22.2385 21.4522 22.3492 21.2415 22.4163C21.0308 22.4833 20.8083 22.5051 20.5886 22.4801ZM32.9086 32.7401H29.9086V27.9101C29.9086 26.7001 29.4786 25.9101 28.3886 25.9101C28.0513 25.9126 27.7228 26.0184 27.4474 26.2133C27.1721 26.4082 26.9631 26.6828 26.8486 27.0001C26.7703 27.2352 26.7364 27.4827 26.7486 27.7301V32.7301H23.7486C23.7486 32.7301 23.7486 24.5501 23.7486 23.7301H26.7486V25.0001C27.0211 24.5272 27.4175 24.1377 27.895 23.8733C28.3726 23.609 28.9132 23.48 29.4586 23.5001C31.4586 23.5001 32.9086 24.7901 32.9086 27.5601V32.7401Z" fill="white"/>
</svg>
