<svg width="52" height="52" viewBox="0 0 52 52" fill="none" xmlns="http://www.w3.org/2000/svg">
<rect width="52" height="52" rx="26" fill="#141414"/>
<path d="M37.001 23.71C37.0505 22.2786 36.7374 20.858 36.091 19.58C35.6524 19.0556 35.0437 18.7017 34.371 18.58C31.5885 18.3275 28.7945 18.224 26.001 18.27C23.2176 18.2219 20.4337 18.3221 17.661 18.57C17.1128 18.6697 16.6055 18.9268 16.201 19.31C15.301 20.14 15.201 21.56 15.101 22.76C14.9559 24.9175 14.9559 27.0824 15.101 29.24C15.1299 29.9154 15.2305 30.5858 15.401 31.24C15.5216 31.745 15.7655 32.2123 16.111 32.6C16.5183 33.0034 17.0374 33.2752 17.601 33.38C19.7569 33.6461 21.9292 33.7564 24.101 33.71C27.601 33.76 30.671 33.71 34.301 33.43C34.8785 33.3316 35.4122 33.0595 35.831 32.65C36.111 32.3699 36.3201 32.0271 36.441 31.65C36.7986 30.5526 36.9743 29.4041 36.961 28.25C37.001 27.69 37.001 24.31 37.001 23.71ZM23.741 28.85V22.66L29.661 25.77C28.001 26.69 25.811 27.73 23.741 28.85Z" fill="white"/>
</svg>
