<svg width="1053" height="266" viewBox="0 0 1053 266" fill="none" xmlns="http://www.w3.org/2000/svg">
<path d="M-100.816 418.051C75.896 360.931 211.576 425.129 373.86 488.764C461.485 523.108 550.111 550.962 643.477 522.569C781.9 480.479 872.114 365.83 986.548 286.088C1181.1 150.535 1244.97 440.185 1412.07 474.247C1483.19 488.738 1527.09 439.185 1587.99 414.998C1674 380.834 1752.96 438.98 1821.36 486.763" stroke="url(#paint0_linear_4_51429)" stroke-miterlimit="10"/>
<path d="M-100.816 383.271C-21.6482 353.082 55.6234 346.132 137.508 370.498C213.114 392.992 278.033 438.416 349.384 470.553C433.652 508.513 520.227 541.805 612.441 511.566C758.911 463.526 847.075 333.076 966.609 246.538C1160.16 106.393 1216.47 405.124 1375.37 445.418C1455.82 465.808 1502.44 406.688 1570.84 379.654C1663.28 343.105 1749.65 411.331 1821.36 463.013" stroke="url(#paint1_linear_4_51429)" stroke-miterlimit="10"/>
<path d="M-100.816 349.697C-29.5676 317.405 41.4249 307.351 116.672 332.589C190.791 357.443 250.994 409.766 319.27 445.982C398.694 488.123 480.425 530.417 571.819 503.435C725.055 458.242 821.241 311.737 940.16 216.939C1142.94 55.2753 1176.59 380.372 1342.72 417.794C1427.96 437.005 1481.04 368.446 1554.23 341.72C1652.7 305.786 1747.14 384.297 1821.34 439.236" stroke="url(#paint2_linear_4_51429)" stroke-miterlimit="10"/>
<path d="M-100.816 317.815C63.8504 229.327 162.753 334 296.87 418.589C373.04 466.629 455.053 522.21 548.394 491.278C699.554 441.186 798.995 290.577 913.582 190.418C987.548 125.784 1058.36 110.779 1121.72 192.547C1176.66 263.44 1211.96 365.548 1309.73 386.092C1394.87 403.969 1455 333.795 1528.04 305.196C1635.53 263.081 1741.94 355.16 1821.36 415.511" stroke="url(#paint3_linear_4_51429)" stroke-miterlimit="10"/>
<path d="M-100.816 288.166C58.6733 187.854 158.063 292.013 283.85 386.554C350.947 436.979 426.912 506.821 517.562 483.147C572.741 468.733 621.667 427.772 663.801 391.607C744.789 322.125 812.014 240.151 888.902 166.745C962.611 96.3647 1035.27 68.6641 1098.47 161.512C1145.58 230.713 1181.71 337.616 1276.41 352.723C1366.45 367.087 1432.34 289.782 1511.3 263.056C1625.2 224.48 1740.02 328.152 1821.36 391.709" stroke="url(#paint4_linear_4_51429)" stroke-miterlimit="10"/>
<path d="M-100.816 261.286C-38.6403 216.529 29.9687 188.443 105.728 215.708C173.184 239.997 225.621 296.424 277.469 343.438C335.903 396.429 409.715 490.508 499.416 472.015C549.906 461.602 594.321 422.924 632.047 389.991C715.316 317.277 788.307 233.046 863.17 152.022C933.24 76.1533 1010.9 21.5729 1076.25 127.169C1120.26 198.241 1154.42 310.659 1254.22 314.609C1342.79 318.123 1409.35 247.333 1489.19 221.222C1611.64 181.185 1735.87 298.861 1821.39 367.984" stroke="url(#paint5_linear_4_51429)" stroke-miterlimit="10"/>
<path d="M-100.816 236.612C-37 186.853 34.095 153.818 114.698 182.493C182.718 206.68 239.051 261.824 289.335 311.403C341.618 362.983 411.791 464.295 497.392 447.008C545.293 437.338 587.427 398.583 622.744 367.138C703.501 295.193 775.621 213.169 848.587 133.581C915.402 60.7128 993.878 -5.71736 1060.15 99.391C1103.52 168.155 1136.45 277.906 1234.38 279.265C1322.19 280.471 1395.41 216.683 1477.4 194.83C1605 160.794 1729.71 272.366 1821.36 343.644" stroke="url(#paint6_linear_4_51429)" stroke-miterlimit="10"/>
<path d="M-100.816 209.116C-30.4134 153.689 44.7054 123.886 130.768 162.359C201.94 194.189 264.27 254.412 319.347 307.736C368.759 355.596 429.987 436.364 507.9 411.202C555.442 395.839 596.781 354.801 632.252 321.817C703.347 255.72 769.419 184.134 836.49 114.011C900.409 47.1447 977.962 -17.9003 1046.67 75.3327C1095.55 141.66 1126.66 247.743 1224.23 252.591C1311.14 256.9 1395.18 199.524 1478.96 184.134C1605.67 160.845 1723.51 248.256 1821.39 315.61" stroke="url(#paint7_linear_4_51429)" stroke-miterlimit="10"/>
<path d="M-100.816 178.569C-25.1081 120.757 52.0354 95.3387 140.481 140.993C208.245 175.953 270.779 232.251 326.523 283.626C378.473 331.512 442.264 414.024 520.765 377.5C561.746 358.443 595.474 322.15 627.664 291.449C695.376 226.814 759.423 158.281 825.546 92.0556C893.95 23.548 971.453 -29.5705 1042.42 61.508C1091.27 124.219 1126.46 222.941 1219.08 227.045C1304.3 230.841 1388.95 189.982 1472.12 176.389C1600.49 155.408 1714.47 220.915 1821.39 284.036" stroke="url(#paint8_linear_4_51429)" stroke-miterlimit="10"/>
<path d="M-100.816 145.533C-13.4982 82.4885 69.7963 68.2278 162.779 126.886C229.594 169.027 291.36 226.121 351.152 277.598C401.078 320.585 457.231 388.067 527.096 348.978C564.514 328.049 595.654 290.73 625.46 260.542C688.918 196.24 750.709 130.375 816.012 67.92C883.673 3.20838 961.124 -43.4979 1033.14 38.2701C1086.91 99.314 1124.15 196.677 1216.54 205.5C1297.97 213.271 1386.69 181.416 1466.79 169.002C1594.78 149.175 1707.39 194.445 1821.34 249.718" stroke="url(#paint9_linear_4_51429)" stroke-miterlimit="10"/>
<path d="M-100.816 110.625C-6.2195 46.9396 80.7656 40.1171 175.567 106.752C247.098 157.024 311.376 220.556 379.396 275.649C426.169 313.506 477.914 365.419 536.374 321.919C575.022 293.167 606.572 249.846 638.659 214.554C692.916 154.921 748.531 96.0825 808.221 41.8611C881.367 -24.5946 960.689 -55.9886 1034.35 24.1122C1088.27 82.7451 1129.58 174.26 1218.18 184.186C1302.04 193.573 1392.72 171.541 1475.78 160.127C1597.93 143.353 1706.65 170.669 1821.36 213.169" stroke="url(#paint10_linear_4_51429)" stroke-miterlimit="10"/>
<path d="M-100.816 74.3836C7.03072 6.90193 98.7059 14.0836 197.711 93.1842C272.83 153.202 336.851 223.043 415.148 279.676C468.867 318.508 507.592 340.438 556.621 286.319C639.941 194.343 707.422 89.5164 805.043 10.2106C876.702 -47.9862 955.537 -69.6851 1026.94 -1.94685C1087.27 55.2754 1127.87 143.122 1214.95 163.744C1295.35 182.749 1396.25 164 1477.09 152.971C1596.39 136.684 1704.06 146.251 1821.39 175.183" stroke="url(#paint11_linear_4_51429)" stroke-miterlimit="10"/>
<path d="M-100.816 37.4238C19.9478 -33.0845 118.287 -10.1802 220.111 80.0776C293.051 144.738 353.715 219.607 436.497 272.725C497.264 311.737 529.249 318.636 570.819 256.515C636.686 158.101 702.988 57.5067 798.943 -15.0791C876.523 -73.789 955.127 -86.9724 1030.94 -19.2855C1094.06 37.0904 1138.99 127.784 1228.26 147.739C1307.42 165.436 1399.82 157.024 1479.63 146.149C1595.49 130.349 1704.34 123.219 1821.39 136.274" stroke="url(#paint12_linear_4_51429)" stroke-miterlimit="10"/>
<path d="M-100.816 0.335756C30.8145 -72.3783 133.792 -36.5471 238.128 62.9442C311.965 133.35 372.834 219.35 463.741 269.262C531.222 306.325 554.903 287.063 587.093 223.531C638.3 122.501 703.065 20.393 797.918 -45.4215C878.214 -101.156 959.433 -102.875 1034.86 -38.8298C1100.65 17.0587 1148.58 105.393 1236.71 130.169C1425.75 183.314 1631.48 103.88 1821.39 97.2879" stroke="url(#paint13_linear_4_51429)" stroke-miterlimit="10"/>
<path d="M-100.816 -36.3161C-35.3341 -71.224 26.2269 -91.9481 99.5004 -66.5302C160.113 -45.4983 209.757 -1.35691 254.223 43.6053C327.573 117.833 390.288 217.709 488.011 261.824C561.311 294.911 578.662 250.334 603.394 188.136C643.708 86.6694 704.577 -17.2848 799.687 -76.6871C1006.97 -206.187 1081.79 55.8397 1246.71 112.652C1439.31 179.005 1633.04 95.2874 1821.39 58.7893" stroke="url(#paint14_linear_4_51429)" stroke-miterlimit="10"/>
<path d="M-100.816 -71.9422C-32.5149 -108.107 30.4301 -128.267 105.036 -100.797C167.622 -77.7644 218.214 -30.6991 263.552 16.9818C334.852 91.953 408.587 221.735 514.948 251.59C589.4 272.494 601.138 202.781 620.001 146.662C653.011 48.4272 709.908 -59.8873 805.094 -111.852C1002.69 -219.73 1102.21 22.8297 1251.4 91.3887C1447.13 181.339 1636.66 89.106 1821.36 21.4447" stroke="url(#paint15_linear_4_51429)" stroke-miterlimit="10"/>
<path d="M-100.816 -105.927C-31.8486 -143.476 30.2763 -163.867 106.19 -137.269C169.135 -115.211 220.572 -65.9916 265.32 -18.0285C337.928 59.8153 415.763 207.68 528.659 229.738C605.393 244.742 616.157 168.027 632.918 110.42C661.7 11.5957 713.522 -97.796 812.988 -143.758C1010.87 -235.196 1117.59 -2.33156 1263.55 72.973C1339.54 112.164 1437.93 132.247 1522.58 118.602C1629.89 101.315 1728.02 37.6804 1821.39 -13.9504" stroke="url(#paint16_linear_4_51429)" stroke-miterlimit="10"/>
<path d="M-100.816 -137.731C-27.3635 -180.231 43.629 -204.725 124.95 -167.996C185.973 -140.424 234.386 -89.7423 278.135 -40.5481C343.694 33.1663 426.322 188.469 536.604 200.114C619.617 208.886 630.099 118.166 647.886 56.9169C675.386 -37.7524 724.901 -139.244 824.572 -175.768C1020.97 -247.764 1134.53 -31.8788 1276.23 52.4798C1347.84 95.1079 1441.44 124.296 1525.19 113.857C1637.4 99.8529 1734.51 18.5978 1821.34 -46.9346" stroke="url(#paint17_linear_4_51429)" stroke-miterlimit="10"/>
<path d="M-100.816 -166.74C-31.4641 -210.958 36.8117 -241.736 118.748 -208.624C184.41 -182.078 236.693 -125.727 281.8 -73.0706C346.283 2.20828 427.373 156.767 541.935 159.486C623.615 161.41 638.736 69.3822 658.009 7.92794C687.816 -87.0235 734.948 -179.128 839.489 -205.982C1039.68 -257.433 1150.83 -60.0411 1294.07 34.6539C1364.19 81.0267 1457.71 119.269 1543.13 106.932C1654.85 90.7732 1744.6 -2.15201 1821.36 -76.6871" stroke="url(#paint18_linear_4_51429)" stroke-miterlimit="10"/>
<path d="M-100.816 -192.363C-37.1538 -238.556 28.9692 -277.26 109.931 -250.124C173.03 -228.989 222.725 -177.23 265.192 -128.138C334.75 -47.7555 404.717 95.236 524.456 104.367C615.491 111.292 639.146 22.7528 665.339 -47.2938C701.066 -142.861 750.863 -223.782 860.274 -238.582C1054.23 -264.82 1166 -97.9243 1300.76 7.13274C1368.32 59.7895 1459.79 110.215 1548.18 101.597C1665.44 90.1576 1751.73 -18.952 1821.36 -102.592" stroke="url(#paint19_linear_4_51429)" stroke-miterlimit="10"/>
<path d="M-100.816 -212.574C-37.4613 -256.818 27.8672 -293.239 107.215 -267.385C169.006 -247.251 218.189 -197.775 260.143 -150.171C327.727 -73.5323 399.258 73.5886 515.563 77.6155C605.495 80.719 636.276 1.0028 668.517 -69.0694C709.857 -158.866 765.805 -241.07 871.909 -255.407C1059.08 -280.697 1176 -124.778 1308.83 -25.0563C1374.01 23.8558 1465.94 73.6143 1549.64 71.9727C1666.67 69.6644 1753.34 -41.7279 1821.36 -123.034" stroke="url(#paint20_linear_4_51429)" stroke-miterlimit="10"/>
<path d="M-100.816 -226.399C-38.4609 -269.104 25.9193 -304.524 103.704 -280.979C163.804 -262.794 212.268 -216.473 253.557 -171.126C320.064 -98.0525 391.287 47.5295 503.825 48.222C592.065 48.7606 629.638 -21.5168 668.158 -89.9732C715.213 -173.588 776.979 -253.817 879.316 -267.872C1059.72 -292.623 1181.59 -152.787 1314.5 -59.7077C1379.03 -14.5147 1469.96 35.9106 1549.82 43.041C1666.26 53.4287 1754.34 -59.0665 1821.34 -137.449" stroke="url(#paint21_linear_4_51429)" stroke-miterlimit="10"/>
<path d="M-100.816 -234.965C-40.9982 -275.875 22.9464 -311.245 97.6551 -292.265C161.343 -276.106 211.935 -227.912 255.3 -181.257C321.218 -110.338 387.315 21.3934 497.443 16.4945C580.763 12.8011 623.231 -50.4999 666.749 -112.801C720.185 -189.336 784.694 -261.101 882.545 -275.003C1060.23 -300.267 1184.71 -179.385 1322.96 -93.1537C1386.82 -53.2956 1467.86 -6.02506 1541.44 13.0319C1660.72 43.9129 1751.55 -67.941 1821.36 -146.939" stroke="url(#paint22_linear_4_51429)" stroke-miterlimit="10"/>
<path d="M-100.816 -239.377C-42.6384 -279.671 19.9478 -315.81 93.4263 -300.857C154.603 -288.392 204.323 -245.507 246.944 -202.443C313.785 -134.936 376.012 -13.6941 482.706 -18.4391C563.643 -22.0299 612.312 -75.3279 661.828 -132.755C721.159 -201.545 789.64 -266.898 883.724 -280.594C1053.9 -305.371 1184.3 -208.727 1324.16 -131.832C1393.56 -93.6667 1466.55 -47.0118 1539.42 -16.1307C1656.72 33.6021 1748.94 -74.0198 1821.34 -152.53" stroke="url(#paint23_linear_4_51429)" stroke-miterlimit="10"/>
<defs>
<linearGradient id="paint0_linear_4_51429" x1="860.274" y1="250.197" x2="860.274" y2="534.293" gradientUnits="userSpaceOnUse">
<stop stop-color="#333333"/>
<stop offset="1" stop-color="#333333" stop-opacity="0"/>
</linearGradient>
<linearGradient id="paint1_linear_4_51429" x1="860.274" y1="209.397" x2="860.274" y2="523.325" gradientUnits="userSpaceOnUse">
<stop stop-color="#333333"/>
<stop offset="1" stop-color="#333333" stop-opacity="0"/>
</linearGradient>
<linearGradient id="paint2_linear_4_51429" x1="860.261" y1="172.147" x2="860.261" y2="511.924" gradientUnits="userSpaceOnUse">
<stop stop-color="#333333"/>
<stop offset="1" stop-color="#333333" stop-opacity="0"/>
</linearGradient>
<linearGradient id="paint3_linear_4_51429" x1="860.274" y1="136.476" x2="860.274" y2="500.208" gradientUnits="userSpaceOnUse">
<stop stop-color="#333333"/>
<stop offset="1" stop-color="#333333" stop-opacity="0"/>
</linearGradient>
<linearGradient id="paint4_linear_4_51429" x1="860.274" y1="102.305" x2="860.274" y2="487.902" gradientUnits="userSpaceOnUse">
<stop stop-color="#333333"/>
<stop offset="1" stop-color="#333333" stop-opacity="0"/>
</linearGradient>
<linearGradient id="paint5_linear_4_51429" x1="860.287" y1="68.4487" x2="860.287" y2="474.387" gradientUnits="userSpaceOnUse">
<stop stop-color="#333333"/>
<stop offset="1" stop-color="#333333" stop-opacity="0"/>
</linearGradient>
<linearGradient id="paint6_linear_4_51429" x1="860.274" y1="44.8047" x2="860.274" y2="448.968" gradientUnits="userSpaceOnUse">
<stop stop-color="#333333"/>
<stop offset="1" stop-color="#333333" stop-opacity="0"/>
</linearGradient>
<linearGradient id="paint7_linear_4_51429" x1="860.287" y1="28.8784" x2="860.287" y2="415.95" gradientUnits="userSpaceOnUse">
<stop stop-color="#333333"/>
<stop offset="1" stop-color="#333333" stop-opacity="0"/>
</linearGradient>
<linearGradient id="paint8_linear_4_51429" x1="860.287" y1="13.0767" x2="860.287" y2="386.564" gradientUnits="userSpaceOnUse">
<stop stop-color="#333333"/>
<stop offset="1" stop-color="#333333" stop-opacity="0"/>
</linearGradient>
<linearGradient id="paint9_linear_4_51429" x1="860.261" y1="-5.35205" x2="860.261" y2="360.719" gradientUnits="userSpaceOnUse">
<stop stop-color="#333333"/>
<stop offset="1" stop-color="#333333" stop-opacity="0"/>
</linearGradient>
<linearGradient id="paint10_linear_4_51429" x1="860.274" y1="-23.4746" x2="860.274" y2="338.442" gradientUnits="userSpaceOnUse">
<stop stop-color="#333333"/>
<stop offset="1" stop-color="#333333" stop-opacity="0"/>
</linearGradient>
<linearGradient id="paint11_linear_4_51429" x1="860.287" y1="-43.9316" x2="860.287" y2="318.652" gradientUnits="userSpaceOnUse">
<stop stop-color="#333333"/>
<stop offset="1" stop-color="#333333" stop-opacity="0"/>
</linearGradient>
<linearGradient id="paint12_linear_4_51429" x1="860.287" y1="-64.804" x2="860.287" y2="302.626" gradientUnits="userSpaceOnUse">
<stop stop-color="#333333"/>
<stop offset="1" stop-color="#333333" stop-opacity="0"/>
</linearGradient>
<linearGradient id="paint13_linear_4_51429" x1="860.287" y1="-87.0615" x2="860.287" y2="288.007" gradientUnits="userSpaceOnUse">
<stop stop-color="#333333"/>
<stop offset="1" stop-color="#333333" stop-opacity="0"/>
</linearGradient>
<linearGradient id="paint14_linear_4_51429" x1="860.287" y1="-112.207" x2="860.287" y2="273.063" gradientUnits="userSpaceOnUse">
<stop stop-color="#333333"/>
<stop offset="1" stop-color="#333333" stop-opacity="0"/>
</linearGradient>
<linearGradient id="paint15_linear_4_51429" x1="860.274" y1="-139.107" x2="860.274" y2="255.385" gradientUnits="userSpaceOnUse">
<stop stop-color="#333333"/>
<stop offset="1" stop-color="#333333" stop-opacity="0"/>
</linearGradient>
<linearGradient id="paint16_linear_4_51429" x1="860.287" y1="-164.716" x2="860.287" y2="231.644" gradientUnits="userSpaceOnUse">
<stop stop-color="#333333"/>
<stop offset="1" stop-color="#333333" stop-opacity="0"/>
</linearGradient>
<linearGradient id="paint17_linear_4_51429" x1="860.261" y1="-190.23" x2="860.261" y2="200.705" gradientUnits="userSpaceOnUse">
<stop stop-color="#333333"/>
<stop offset="1" stop-color="#333333" stop-opacity="0"/>
</linearGradient>
<linearGradient id="paint18_linear_4_51429" x1="860.274" y1="-222.544" x2="860.274" y2="159.516" gradientUnits="userSpaceOnUse">
<stop stop-color="#333333"/>
<stop offset="1" stop-color="#333333" stop-opacity="0"/>
</linearGradient>
<linearGradient id="paint19_linear_4_51429" x1="860.274" y1="-259.109" x2="860.274" y2="104.749" gradientUnits="userSpaceOnUse">
<stop stop-color="#333333"/>
<stop offset="1" stop-color="#333333" stop-opacity="0"/>
</linearGradient>
<linearGradient id="paint20_linear_4_51429" x1="860.274" y1="-276.004" x2="860.274" y2="77.7033" gradientUnits="userSpaceOnUse">
<stop stop-color="#333333"/>
<stop offset="1" stop-color="#333333" stop-opacity="0"/>
</linearGradient>
<linearGradient id="paint21_linear_4_51429" x1="860.261" y1="-288.508" x2="860.261" y2="48.2251" gradientUnits="userSpaceOnUse">
<stop stop-color="#333333"/>
<stop offset="1" stop-color="#333333" stop-opacity="0"/>
</linearGradient>
<linearGradient id="paint22_linear_4_51429" x1="860.274" y1="-297.532" x2="860.274" y2="18.2908" gradientUnits="userSpaceOnUse">
<stop stop-color="#333333"/>
<stop offset="1" stop-color="#333333" stop-opacity="0"/>
</linearGradient>
<linearGradient id="paint23_linear_4_51429" x1="860.261" y1="-304.303" x2="860.261" y2="-3.47781" gradientUnits="userSpaceOnUse">
<stop stop-color="#333333"/>
<stop offset="1" stop-color="#333333" stop-opacity="0"/>
</linearGradient>
</defs>
</svg>
