<svg width="1919" height="63" viewBox="0 0 1919 63" fill="none" xmlns="http://www.w3.org/2000/svg">
<path d="M0.332031 256.582C62.3789 211.964 130.845 183.966 206.447 211.146C273.763 235.36 326.091 291.611 377.831 338.479C436.143 391.304 509.802 485.091 599.317 466.656C649.701 456.275 694.024 417.717 731.672 384.887C814.767 312.399 887.607 228.43 962.314 147.658C1032.24 72.0254 1109.73 17.6147 1174.95 122.882C1218.86 193.733 1252.96 305.802 1352.55 309.74C1440.94 313.242 1507.36 242.672 1587.03 216.643C1709.23 176.73 1833.2 294.04 1918.54 362.948" stroke="#666666" stroke-miterlimit="10"/>
<path d="M0.332031 231.984C64.0157 182.381 134.963 149.448 215.399 178.034C283.277 202.146 339.493 257.119 389.672 306.543C441.847 357.962 511.873 458.96 597.297 441.726C645.098 432.087 687.144 393.452 722.388 362.105C802.977 290.384 874.947 208.614 947.762 129.274C1014.44 56.6328 1092.75 -9.59073 1158.89 95.1907C1202.16 163.741 1235.03 273.15 1332.75 274.506C1420.38 275.707 1493.45 212.117 1575.26 190.333C1702.61 156.403 1827.06 267.627 1918.52 338.684" stroke="#666666" stroke-miterlimit="10"/>
<path d="M0.332031 204.574C70.5887 149.32 145.551 119.609 231.435 157.962C302.459 189.693 364.659 249.729 419.622 302.887C468.932 350.599 530.032 431.115 607.783 406.032C655.226 390.716 696.479 349.806 731.876 316.924C802.824 251.033 868.758 179.67 935.69 109.765C999.476 43.1067 1076.87 -21.736 1145.44 71.207C1194.21 137.328 1225.26 243.081 1322.63 247.914C1409.35 252.209 1493.22 195.012 1576.82 179.67C1703.27 156.454 1820.87 243.593 1918.54 310.737" stroke="#666666" stroke-miterlimit="10"/>
<path d="M0.332031 174.122C75.8829 116.49 152.866 91.1509 241.128 136.664C308.75 171.514 371.155 227.638 426.783 278.852C478.625 326.59 542.283 408.845 620.622 372.435C661.517 353.437 695.175 317.257 727.298 286.651C794.87 222.217 858.783 153.897 924.769 87.8781C993.031 19.5835 1070.37 -33.3697 1141.19 57.4255C1189.94 119.942 1225.05 218.356 1317.49 222.447C1402.52 226.232 1487 185.5 1569.99 171.949C1698.1 151.033 1811.84 216.336 1918.54 279.261" stroke="#666666" stroke-miterlimit="10"/>
<path d="M0.332031 141.189C87.4687 78.3408 170.59 64.1244 263.379 122.601C330.055 164.61 391.693 221.527 451.361 272.844C501.183 315.697 557.219 382.969 626.939 344.002C664.279 323.138 695.354 285.935 725.099 255.84C788.424 191.739 850.088 126.078 915.255 63.8176C982.775 -0.692762 1060.06 -47.2538 1131.93 34.26C1185.59 95.114 1222.75 192.174 1314.95 200.969C1396.21 208.717 1484.75 176.96 1564.68 164.585C1692.4 144.82 1804.78 189.949 1918.49 245.05" stroke="#666666" stroke-miterlimit="10"/>
<path d="M0.332031 106.39C94.7323 42.9022 181.536 36.1009 276.141 102.529C347.523 152.644 411.667 215.978 479.546 270.9C526.221 308.64 577.859 360.391 636.197 317.027C674.766 288.364 706.249 245.178 738.27 209.995C792.414 150.547 847.914 91.8922 907.48 37.8395C980.473 -28.4095 1059.63 -59.7059 1133.13 20.1459C1186.95 78.5964 1228.17 169.826 1316.59 179.721C1400.27 189.08 1490.76 167.116 1573.65 155.738C1695.55 139.016 1804.04 166.247 1918.52 208.614" stroke="#666666" stroke-miterlimit="10"/>
<path d="M0.332031 70.261C107.955 2.98918 199.44 10.1485 298.239 89.0031C373.201 148.834 437.09 218.458 515.224 274.915C568.831 313.626 607.476 335.487 656.402 281.537C739.549 189.847 806.89 85.3467 904.308 6.2876C975.818 -51.7283 1054.49 -73.3596 1125.74 -5.83208C1185.95 51.2122 1226.46 138.786 1313.37 159.343C1393.6 178.29 1494.29 159.599 1574.96 148.604C1694.01 132.368 1801.46 141.905 1918.54 170.747" stroke="#666666" stroke-miterlimit="10"/>
<path d="M0.332031 33.4161C120.845 -36.8728 218.979 -14.0398 320.592 75.9372C393.381 140.396 453.919 215.032 536.528 267.985C597.169 306.876 629.087 313.754 670.571 251.826C736.301 153.718 802.465 53.4366 898.221 -18.9235C975.639 -77.4507 1054.08 -90.5931 1129.73 -23.1168C1192.73 33.0837 1237.56 123.495 1326.64 143.388C1405.64 161.031 1497.85 152.644 1577.49 141.803C1693.12 126.052 1801.74 118.944 1918.54 131.959" stroke="#666666" stroke-miterlimit="10"/>
<path d="M0.332031 -3.55645C131.689 -76.0443 234.453 -40.3245 338.572 58.8573C412.256 129.044 472.998 214.777 563.715 264.534C631.057 301.481 654.689 282.279 686.812 218.944C737.912 118.228 802.542 16.4384 897.198 -49.1714C977.327 -104.733 1058.38 -106.446 1133.65 -42.6002C1199.3 13.1145 1247.13 101.174 1335.08 125.873C1523.73 178.852 1729.03 99.6653 1918.54 93.0941" stroke="#666666" stroke-miterlimit="10"/>
<path d="M0.332031 -40.0944C65.6782 -74.8937 127.111 -95.5534 200.232 -70.2146C260.719 -49.248 310.259 -5.24394 354.633 39.5784C427.831 113.575 490.415 213.14 587.936 257.119C661.083 290.103 678.397 245.664 703.078 183.659C743.309 82.5086 804.051 -21.1223 898.963 -80.3399C1105.82 -209.437 1180.48 51.7748 1345.06 108.41C1537.26 174.557 1730.59 91.0997 1918.54 54.7152" stroke="#666666" stroke-miterlimit="10"/>
<path d="M0.332031 -75.6096C68.4915 -111.662 131.306 -131.759 205.757 -104.375C268.213 -81.4137 318.699 -34.4948 363.943 13.0378C435.095 87.7758 508.676 217.155 614.816 246.917C689.114 267.755 700.827 198.259 719.651 142.314C752.593 44.3854 809.371 -63.5922 904.359 -115.395C1101.55 -222.938 1200.86 18.8675 1349.74 87.2133C1545.06 176.883 1734.19 84.9376 1918.52 17.4868" stroke="#666666" stroke-miterlimit="10"/>
<path d="M0.332031 -109.488C69.1565 -146.921 131.152 -167.249 206.908 -140.734C269.722 -118.744 321.052 -69.6776 365.708 -21.8637C438.164 55.738 515.838 203.143 628.499 225.132C705.073 240.09 715.815 163.613 732.541 106.185C761.263 7.6684 812.977 -101.383 912.237 -147.203C1109.71 -238.356 1216.2 -6.21555 1361.86 68.8548C1437.69 107.924 1535.88 127.945 1620.35 114.342C1727.44 97.1085 1825.37 33.672 1918.54 -17.7983" stroke="#666666" stroke-miterlimit="10"/>
<path d="M0.332031 -141.194C73.6322 -183.562 144.477 -207.98 225.629 -171.365C286.525 -143.879 334.838 -93.3544 378.496 -44.3132C443.919 29.1719 526.375 183.992 636.427 195.6C719.267 204.345 729.728 113.907 747.478 52.8486C774.92 -41.5262 824.333 -142.702 923.797 -179.113C1119.78 -250.884 1233.11 -35.6709 1374.52 48.4253C1445.98 90.9208 1539.38 120.018 1622.96 109.612C1734.93 95.651 1831.84 14.6487 1918.49 -50.6799" stroke="#666666" stroke-miterlimit="10"/>
<path d="M0.332031 -170.112C69.5401 -214.193 137.674 -244.876 219.44 -211.866C284.965 -185.403 337.14 -129.228 382.153 -76.7348C446.502 -1.69001 527.423 152.388 641.747 155.099C723.257 157.016 738.347 65.275 757.58 4.01187C787.325 -90.6443 834.359 -182.462 938.682 -209.233C1138.45 -260.524 1249.38 -63.7458 1392.32 30.6547C1462.3 76.8833 1555.62 115.007 1640.87 102.708C1752.35 86.5994 1841.92 -6.03673 1918.52 -80.34" stroke="#666666" stroke-miterlimit="10"/>
<path d="M0.332031 -195.656C63.8623 -241.705 129.848 -280.289 210.642 -253.237C273.609 -232.168 323.201 -180.57 365.58 -131.631C434.993 -51.4983 504.814 91.0484 624.305 100.151C715.15 107.055 738.756 18.7906 764.895 -51.0381C800.547 -146.308 850.241 -226.978 959.424 -241.731C1152.98 -267.888 1264.52 -101.511 1399 3.21918C1466.41 55.7122 1557.69 105.981 1645.9 97.3895C1762.91 85.9858 1849.03 -22.7844 1918.52 -106.165" stroke="#666666" stroke-miterlimit="10"/>
<path d="M0.332031 -215.804C63.5554 -259.911 128.748 -296.218 207.931 -270.445C269.594 -250.373 318.674 -201.051 360.541 -153.595C427.985 -77.195 499.367 69.4683 615.43 73.4826C705.175 76.5764 735.892 -2.89178 768.066 -72.7461C809.32 -162.263 865.152 -244.211 971.036 -258.504C1157.82 -283.715 1274.49 -128.282 1407.05 -28.8698C1472.09 19.8901 1563.83 69.4938 1647.36 67.8574C1764.14 65.5562 1850.64 -45.4896 1918.52 -126.543" stroke="#666666" stroke-miterlimit="10"/>
<path d="M0.332031 -229.586C62.5579 -272.158 126.804 -307.469 204.427 -283.996C264.402 -265.868 312.766 -219.69 353.968 -174.485C420.338 -101.639 491.413 43.4904 603.716 44.1808C691.773 44.7177 729.268 -25.3411 767.708 -93.5846C814.665 -176.939 876.303 -256.919 978.427 -270.931C1158.45 -295.605 1280.07 -156.203 1412.7 -63.4132C1477.1 -18.3608 1567.85 31.9077 1647.54 39.0158C1763.73 49.3713 1851.64 -62.774 1918.49 -140.913" stroke="#666666" stroke-miterlimit="10"/>
<path d="M0.332031 -238.126C60.0259 -278.908 123.837 -314.168 198.391 -295.247C261.947 -279.138 312.433 -231.094 355.708 -184.584C421.489 -113.886 487.448 17.4356 597.348 12.5519C680.495 8.86998 722.874 -54.2341 766.301 -116.341C819.627 -192.639 884.001 -264.18 981.649 -278.039C1158.97 -303.224 1283.19 -182.718 1421.14 -96.7552C1484.88 -57.0211 1565.75 -9.89758 1639.18 9.10013C1758.21 39.8851 1848.85 -71.621 1918.52 -150.373" stroke="#666666" stroke-miterlimit="10"/>
<path d="M0.332031 -242.524C58.3891 -282.692 120.845 -318.719 194.171 -303.812C255.22 -291.386 304.837 -248.635 347.37 -205.704C414.072 -138.407 476.17 -17.5426 582.642 -22.2729C663.41 -25.8525 711.978 -78.9847 761.391 -136.234C820.599 -204.809 888.937 -269.959 982.826 -283.613C1152.65 -308.312 1282.78 -211.969 1422.35 -135.313C1491.61 -97.2665 1564.44 -50.7566 1637.16 -19.9717C1754.22 29.6065 1846.24 -77.6807 1918.49 -155.947" stroke="#666666" stroke-miterlimit="10"/>
</svg>
