<svg width="633" height="331" viewBox="0 0 633 331" fill="none" xmlns="http://www.w3.org/2000/svg">
<g clip-path="url(#clip0_4_50894)">
<path fill-rule="evenodd" clip-rule="evenodd" d="M547.548 5.96303C547.015 5.20176 546.246 5.47859 546.725 2.18439C548.518 -3.2109 546.235 3.19756 546.447 2.28128C546.712 3.87301 547.69 3.09791 548.289 3.01209C548.105 3.72629 547.857 4.87788 547.548 5.96303Z" fill="#1A1A1A"/>
<path fill-rule="evenodd" clip-rule="evenodd" d="M598.712 341.661C605.886 335.266 612.205 329.187 618.339 323.338C625.511 332.935 632.869 343.172 640.043 353.271C634.566 360.261 628.521 367.408 622.303 375.306C614.398 363.893 606.828 352.828 598.712 341.661Z" fill="#1A1A1A"/>
<path fill-rule="evenodd" clip-rule="evenodd" d="M621.309 320.648C626.967 315.701 632.39 310.679 637.469 306.015C643.826 314.422 650.421 322.588 657.102 331.3C652.45 337.033 647.706 343.084 642.65 349.891C635.529 340.089 628.33 329.977 621.306 320.648H621.309Z" fill="#1A1A1A"/>
<path fill-rule="evenodd" clip-rule="evenodd" d="M506.989 350.874C518.146 343.02 528.581 335.499 538.239 328.606C546.338 340.645 554.36 352.64 562.348 365.376C552.972 374.044 543.375 383.694 532.408 393.064C523.999 378.307 515.258 364.532 506.989 350.874Z" fill="#1A1A1A"/>
<path fill-rule="evenodd" clip-rule="evenodd" d="M542.862 325.392C552.115 320.044 560.304 314.145 568.267 308.652C575.614 318.474 583.203 328.772 590.539 339.515C583.069 346.505 575.407 353.639 566.82 361.822C558.637 349.005 550.989 336.93 542.862 325.392Z" fill="#1A1A1A"/>
<path fill-rule="evenodd" clip-rule="evenodd" d="M571.89 305.732C579.561 300.799 586.554 295.8 593.29 291.6C600.032 300.007 607.207 309.538 614.055 319.26C607.784 324.761 601.1 330.128 593.887 336.29C586.827 326.026 579.287 315.825 571.89 305.732Z" fill="#1A1A1A"/>
<path fill-rule="evenodd" clip-rule="evenodd" d="M596.503 289.552C602.919 285.751 608.716 281.704 614.466 278.398C620.86 285.903 626.989 293.707 633.52 302.092C628.386 306.56 622.736 311.116 617.067 316.179C610.288 307.302 603.262 297.898 596.503 289.552Z" fill="#1A1A1A"/>
<path fill-rule="evenodd" clip-rule="evenodd" d="M230.356 248.443C253.244 243.632 274.276 238.89 294.085 234.378C301.719 246.672 309.512 258.412 316.809 271.01C297.594 276.35 276.395 283.232 252.921 290.241C245.284 275.733 237.881 262.008 230.353 248.443H230.356Z" fill="#1A1A1A"/>
<path fill-rule="evenodd" clip-rule="evenodd" d="M362.354 234.561C378.333 231.023 392.392 227.535 406.383 224.897C413.245 234.176 420.718 243.787 428.168 253.864C414.516 258.005 400.188 262.451 384.788 267.37C377.614 256.319 369.805 244.969 362.354 234.558V234.561Z" fill="#1A1A1A"/>
<path fill-rule="evenodd" clip-rule="evenodd" d="M381.155 162.34C393.881 161.831 405.788 161.061 417.276 160.452C423.74 167.5 430.067 174.374 436.148 181.516C425.005 182.526 413.171 183.811 400.581 185.649C394.299 177.599 388.028 169.803 381.155 162.34Z" fill="#1A1A1A"/>
<path fill-rule="evenodd" clip-rule="evenodd" d="M428.108 332.288C442.726 325.124 456.222 318.469 468.619 311.872C476.607 323.983 485.117 336.983 492.801 350.395C480.724 358.749 467.733 367.323 453.449 376.557C445.196 361.089 436.581 346.719 428.108 332.288Z" fill="#1A1A1A"/>
<path fill-rule="evenodd" clip-rule="evenodd" d="M475.406 310.034C487.483 303.866 498.489 298.474 508.924 293.322C516.118 303.532 523.707 314.095 531.336 324.839C521.316 331.654 510.346 339.167 498.793 347.07C490.866 333.738 483.221 321.946 475.406 310.031V310.034Z" fill="#1A1A1A"/>
<path fill-rule="evenodd" clip-rule="evenodd" d="M515.358 289.565C525.002 285.125 534.108 280.796 542.731 276.488C549.613 285.294 556.525 294.587 563.445 304.135C555.282 309.779 546.739 315.172 537.413 320.556C530.186 310.347 522.714 299.899 515.358 289.568V289.565Z" fill="#1A1A1A"/>
<path fill-rule="evenodd" clip-rule="evenodd" d="M547.72 273.967C555.557 269.543 563.06 266.279 570.505 263.046C576.982 271.279 583.63 279.691 590.461 288.193C583.421 292.137 576.06 296.716 568.64 301.801C561.767 292.392 554.587 282.961 547.72 273.967Z" fill="#1A1A1A"/>
<path fill-rule="evenodd" clip-rule="evenodd" d="M573.764 262.141C580.378 258.943 586.908 255.937 593.266 253.277C598.896 260.369 604.852 267.436 610.73 274.506C604.958 278.075 598.846 281.917 592.647 286.036C586.27 277.942 579.832 269.842 573.767 262.141H573.764Z" fill="#1A1A1A"/>
<path fill-rule="evenodd" clip-rule="evenodd" d="M615.78 242.688C621.034 240.784 625.621 238.649 630.178 236.548C635.081 242.063 640.179 247.854 644.875 253.31C640.736 255.976 636.711 258.846 631.772 261.374C626.594 255.154 621.243 248.87 615.78 242.686V242.688Z" fill="#1A1A1A"/>
<path fill-rule="evenodd" clip-rule="evenodd" d="M632.598 235.563C637.024 233.47 641.021 231.386 644.954 229.844C649.519 234.791 653.744 239.607 658.469 244.956C654.868 247.295 651.161 249.554 647.328 252.142C642.309 246.525 637.593 240.997 632.598 235.563Z" fill="#1A1A1A"/>
<path fill-rule="evenodd" clip-rule="evenodd" d="M443.316 195.645C453.968 194.183 464.119 192.935 473.972 191.396C480.118 198.756 486.308 205.854 492.824 213.242C483.434 215.219 473.439 217.085 462.792 219.709C456.254 211.476 449.698 203.551 443.313 195.645H443.316Z" fill="#1A1A1A"/>
<path fill-rule="evenodd" clip-rule="evenodd" d="M449.031 126.179C458.218 126.658 466.942 127.078 475.25 127.471C480.373 132.543 485.443 137.686 490.672 142.597C482.361 142.647 474.044 142.531 465.097 142.409C459.907 136.917 454.414 131.546 449.034 126.179H449.031Z" fill="#1A1A1A"/>
<path fill-rule="evenodd" clip-rule="evenodd" d="M270.648 337.619C294.027 328.08 315.466 319.645 335.868 311.847C343.817 326.508 352.326 342.262 360.086 359.14C340.057 369.587 319.078 380.195 295.624 391.545C287.695 373.205 279.13 355.034 270.651 337.619H270.648Z" fill="#1A1A1A"/>
<path fill-rule="evenodd" clip-rule="evenodd" d="M403.016 285.643C417.808 280.156 431.889 275.276 444.944 270.473C452.547 281.327 460.296 292.835 467.832 304.47C455.354 310.842 441.61 317.314 427.566 323.861C419.383 311.044 411.216 297.851 403.019 285.646L403.016 285.643Z" fill="#1A1A1A"/>
<path fill-rule="evenodd" clip-rule="evenodd" d="M492.779 254.866C502.999 251.414 512.325 248.261 521.205 245.014C527.644 252.925 534.38 261.521 540.844 270.357C532.387 274.432 523.131 278.756 513.786 283.224C507.03 273.407 499.752 263.788 492.776 254.866H492.779Z" fill="#1A1A1A"/>
<path fill-rule="evenodd" clip-rule="evenodd" d="M526.278 243.444C534.742 240.61 542.672 238.104 550.273 235.815C556.639 243.314 562.818 250.927 569.184 258.498C561.954 261.579 554.587 264.674 546.619 268.524C539.715 259.683 533.101 251.168 526.278 243.444Z" fill="#1A1A1A"/>
<path fill-rule="evenodd" clip-rule="evenodd" d="M553.547 234.981C560.593 232.714 567.429 230.483 574.138 228.216C579.726 234.826 585.318 241.323 591.031 248.064C584.852 250.824 578.327 253.922 571.688 256.906C565.473 249.429 559.335 242.04 553.549 234.979L553.547 234.981Z" fill="#1A1A1A"/>
<path fill-rule="evenodd" clip-rule="evenodd" d="M578.57 226.873C584.582 225.066 590.471 223.327 595.851 221.597C601.47 227.845 606.804 233.658 612.066 239.906C607.022 241.891 601.592 244.142 595.647 246.976C590.039 239.865 584.131 233.202 578.57 226.873Z" fill="#1A1A1A"/>
<path fill-rule="evenodd" clip-rule="evenodd" d="M598.488 221.038C603.954 219.535 608.851 217.813 613.773 216.401C618.595 221.597 623.512 227.184 628.094 232.596C623.648 234.536 619.077 236.693 613.77 238.489C608.843 232.872 603.611 226.791 598.491 221.038H598.488Z" fill="#1A1A1A"/>
<path fill-rule="evenodd" clip-rule="evenodd" d="M616.393 215.56C621.104 214.295 625.538 213.198 629.725 211.978C634.142 216.786 638.688 221.517 642.883 226.226C639.05 227.679 634.85 229.393 630.681 231.449C626.018 225.999 621.218 220.814 616.393 215.56Z" fill="#1A1A1A"/>
<path fill-rule="evenodd" clip-rule="evenodd" d="M631.654 211.374C635.645 210.278 639.463 209.115 643.117 207.842C647.201 212.229 651.323 216.603 655.172 220.869C651.955 222.408 648.405 223.936 644.759 225.367C640.397 220.761 636.085 216.025 631.651 211.374H631.654Z" fill="#1A1A1A"/>
<path fill-rule="evenodd" clip-rule="evenodd" d="M511.773 187.523C519.756 186.709 527.44 186.092 534.809 185.286C540.258 191.141 545.816 197.137 551.359 203.05C544.249 204.24 537.15 205.666 529.179 207.277C523.365 200.564 517.612 193.887 511.773 187.523Z" fill="#1A1A1A"/>
<path fill-rule="evenodd" clip-rule="evenodd" d="M538.158 184.755C545.106 183.883 551.896 183.293 557.994 182.482C563.334 187.952 568.616 193.547 573.574 199.025C567.537 200.193 561.308 201.372 554.58 202.446C549.239 196.708 543.609 190.59 538.158 184.755Z" fill="#1A1A1A"/>
<path fill-rule="evenodd" clip-rule="evenodd" d="M561.018 182.147C567.356 181.538 573.039 180.998 578.553 180.47C583.327 185.309 588.335 190.496 593.102 195.465C587.8 196.462 582.318 197.469 576.546 198.69C571.523 193.038 566.225 187.457 561.018 182.147Z" fill="#1A1A1A"/>
<path fill-rule="evenodd" clip-rule="evenodd" d="M581.153 180.171C586.549 179.656 591.672 179.343 596.564 178.892C601.043 183.404 605.806 188.395 610.129 192.835C605.472 193.619 600.588 194.2 595.585 194.986C591.017 190.228 585.925 185.04 581.151 180.171H581.153Z" fill="#1A1A1A"/>
<path fill-rule="evenodd" clip-rule="evenodd" d="M598.957 178.717C603.679 178.194 608.091 177.555 612.52 177.38C616.681 181.513 620.943 185.815 625.148 190.261C621.18 190.945 616.954 191.728 612.397 192.572C608.013 187.9 603.364 183.221 598.957 178.717Z" fill="#1A1A1A"/>
<path fill-rule="evenodd" clip-rule="evenodd" d="M614.572 177.308C618.697 176.915 622.501 176.553 626.361 176.298C630.422 180.215 634.503 184.245 638.031 187.988C634.648 188.664 631.024 189.361 627.022 189.862C622.95 185.524 618.897 181.427 614.574 177.308H614.572Z" fill="#1A1A1A"/>
<path fill-rule="evenodd" clip-rule="evenodd" d="M628.097 176.168C631.795 175.791 635.399 175.55 638.627 175.202C642.359 178.828 646.032 182.568 649.664 186.18C646.623 186.892 643.137 187.255 639.862 187.736C636.032 183.952 632.239 180.085 628.097 176.171V176.168Z" fill="#1A1A1A"/>
<path fill-rule="evenodd" clip-rule="evenodd" d="M633.758 153.87C628.122 153.382 622.42 153.396 616.213 153.114C615.048 153.006 613.732 152.909 612.372 152.497C618.855 153.114 624.794 152.975 630.525 153.319C631.874 153.82 632.902 153.64 633.758 153.872V153.87Z" fill="#1A1A1A"/>
<path fill-rule="evenodd" clip-rule="evenodd" d="M520.791 165.565C527.979 165.108 535.112 164.854 541.553 164.438C546.715 169.596 551.815 174.841 556.793 180.181C550.424 180.821 543.637 181.438 536.879 182.222C531.55 176.475 526.036 170.772 520.794 165.562L520.791 165.565Z" fill="#1A1A1A"/>
<path fill-rule="evenodd" clip-rule="evenodd" d="M544.682 164.259C551.115 164.156 557.221 164.026 562.955 163.78C567.606 168.547 572.724 173.538 577.23 178.296C571.807 178.828 565.915 179.24 559.83 179.736C554.902 174.54 549.71 169.289 544.682 164.261V164.259Z" fill="#1A1A1A"/>
<path fill-rule="evenodd" clip-rule="evenodd" d="M565.718 163.758C571.398 163.619 576.735 163.628 582 163.503C586.471 167.752 590.93 172.273 595.262 176.929C590.317 177.197 585.203 177.554 579.871 178.177C575.434 173.441 570.386 168.428 565.715 163.755L565.718 163.758Z" fill="#1A1A1A"/>
<path fill-rule="evenodd" clip-rule="evenodd" d="M584.452 163.351C589.466 163.248 594.141 163.337 598.678 163.19C602.968 167.295 607.14 171.387 611.195 175.448C606.923 175.636 602.452 176.173 597.664 176.691C593.299 172.245 588.842 167.652 584.452 163.351Z" fill="#1A1A1A"/>
<path fill-rule="evenodd" clip-rule="evenodd" d="M600.869 163.088C605.365 163.174 609.278 162.963 613.378 163.002C617.419 166.897 621.349 170.645 625.156 174.46C621.374 174.8 617.427 175.121 613.247 175.381C609.194 171.248 605.072 167.34 600.869 163.088Z" fill="#1A1A1A"/>
<path fill-rule="evenodd" clip-rule="evenodd" d="M615.252 162.864C619.265 162.819 622.902 162.805 626.534 162.675C630.258 166.263 633.859 169.809 637.477 173.427C634.232 174.053 630.712 174.211 627.027 174.465C623.075 170.548 619.365 166.764 615.249 162.864H615.252Z" fill="#1A1A1A"/>
<path fill-rule="evenodd" clip-rule="evenodd" d="M628.23 162.717C631.619 162.717 635.064 162.869 638.002 162.789C641.402 165.964 644.886 169.363 648.328 172.619C645.371 172.793 642.327 173.04 639.114 173.419C635.638 169.823 631.884 166.299 628.23 162.717Z" fill="#1A1A1A"/>
<path fill-rule="evenodd" clip-rule="evenodd" d="M502.777 146.437C510.339 146.517 517.635 146.625 524.453 146.794C529.428 151.771 534.389 156.558 539.289 161.493C532.583 161.718 525.529 162.053 518.447 162.357C513.137 157.003 507.811 151.575 502.777 146.44V146.437Z" fill="#1A1A1A"/>
<path fill-rule="evenodd" clip-rule="evenodd" d="M527.638 147.018C534.294 147.04 540.735 147.331 546.728 147.527C551.438 152.098 556.182 156.668 560.75 161.208C554.922 161.15 548.676 161.244 542.383 161.535C537.572 156.485 532.655 151.755 527.638 147.018Z" fill="#1A1A1A"/>
<path fill-rule="evenodd" clip-rule="evenodd" d="M549.754 147.577C555.655 147.693 561.369 147.926 566.765 148.167C571.065 152.294 575.444 156.552 579.828 161.028C574.658 161.064 569.237 161.166 563.646 161.252C559.089 156.646 554.345 151.99 549.757 147.577H549.754Z" fill="#1A1A1A"/>
<path fill-rule="evenodd" clip-rule="evenodd" d="M569.244 148.195C574.612 148.499 579.248 148.593 584.145 148.87C588.493 152.904 592.439 156.776 596.617 160.807C591.951 160.829 587.205 160.779 582.121 160.879C578.013 156.594 573.626 152.336 569.244 148.195Z" fill="#1A1A1A"/>
<path fill-rule="evenodd" clip-rule="evenodd" d="M586.654 149.081C591.113 149.166 595.481 149.291 599.826 149.546C603.851 153.418 607.703 157.095 611.438 160.713C607.544 160.909 603.355 160.937 598.795 160.837C594.762 156.79 590.726 152.998 586.654 149.081Z" fill="#1A1A1A"/>
<path fill-rule="evenodd" clip-rule="evenodd" d="M601.963 149.612C606.213 149.902 609.951 150.063 613.538 150.207C617.337 153.7 621.222 157.224 624.703 160.64C621.152 160.699 617.44 160.815 613.368 160.712C609.63 157.108 605.845 153.44 601.963 149.612Z" fill="#1A1A1A"/>
<path fill-rule="evenodd" clip-rule="evenodd" d="M615.772 150.628C619.551 150.941 622.896 151.115 626.305 151.317C629.78 154.6 633.415 157.986 636.773 161.374C633.565 161.128 630.19 161.084 626.667 160.94C623.175 157.662 619.702 154.387 615.772 150.631V150.628Z" fill="#1A1A1A"/>
<path fill-rule="evenodd" clip-rule="evenodd" d="M511.612 131.054C518.533 131.447 525.083 131.715 531.415 132.23C536.109 136.698 540.641 141.022 545.223 145.678C538.974 145.258 532.725 145.213 525.952 145.017C521.351 140.352 516.545 135.696 511.615 131.054H511.612Z" fill="#1A1A1A"/>
<path fill-rule="evenodd" clip-rule="evenodd" d="M534.584 132.676C540.782 132.958 546.479 133.49 552.227 134.093C556.594 138.104 560.825 142.193 565.156 146.356C559.574 145.891 554.139 145.877 548.102 145.689C543.553 141.249 538.982 136.731 534.584 132.676Z" fill="#1A1A1A"/>
<path fill-rule="evenodd" clip-rule="evenodd" d="M554.88 134.317C560.337 134.738 565.396 135.275 570.519 135.829C574.666 139.577 578.671 143.48 582.844 147.395C577.905 146.893 573.055 146.791 567.631 146.392C563.565 142.47 559.242 138.423 554.88 134.317Z" fill="#1A1A1A"/>
<path fill-rule="evenodd" clip-rule="evenodd" d="M573.011 136.009C577.839 136.438 582.384 136.698 586.897 137.127C590.793 140.759 594.576 144.349 598.441 148.031C594.099 147.807 589.815 147.616 585.007 147.4C580.899 143.536 577.092 139.779 573.011 136.009Z" fill="#1A1A1A"/>
<path fill-rule="evenodd" clip-rule="evenodd" d="M589.143 137.398C593.218 137.667 597.276 138.052 601.451 138.641C605.116 141.983 608.787 145.465 612.352 148.798C608.555 148.615 604.62 148.239 600.573 148.136C596.629 144.452 592.836 140.958 589.143 137.398Z" fill="#1A1A1A"/>
<path fill-rule="evenodd" clip-rule="evenodd" d="M613.922 141.241C617.507 141.684 620.941 142.091 624.093 142.367C627.332 145.338 630.788 148.485 634.121 151.611C630.952 151.328 627.688 151.253 624.433 151.051C621.124 147.81 617.549 144.535 613.922 141.243V141.241Z" fill="#1A1A1A"/>
<path fill-rule="evenodd" clip-rule="evenodd" d="M626.026 142.534C629.098 142.802 632.027 142.999 634.87 143.356C637.847 146.218 640.849 148.892 643.711 151.688C641.197 151.652 638.326 151.447 635.586 151.362C632.526 148.513 629.206 145.41 626.026 142.534Z" fill="#1A1A1A"/>
<path fill-rule="evenodd" clip-rule="evenodd" d="M519.099 118.383C525.325 119.117 531.329 119.823 537.38 120.543C541.667 124.523 545.85 128.382 550.254 132.429C544.317 131.66 538.746 131.325 532.394 130.641C528.054 126.45 523.544 122.502 519.099 118.383Z" fill="#1A1A1A"/>
<path fill-rule="evenodd" clip-rule="evenodd" d="M540.16 120.833C545.703 121.437 551.272 122.22 556.565 122.882C560.492 126.58 564.584 130.315 568.684 134.143C563.499 133.57 558.494 133.169 552.9 132.704C548.504 128.593 544.307 124.77 540.16 120.831V120.833Z" fill="#1A1A1A"/>
<path fill-rule="evenodd" clip-rule="evenodd" d="M559.101 123.178C564.023 123.737 568.85 124.399 573.8 125.141C577.571 128.673 581.175 131.906 585.113 135.525C580.606 135.095 576.005 134.733 571.163 134.412C567.142 130.561 562.983 126.738 559.101 123.178Z" fill="#1A1A1A"/>
<path fill-rule="evenodd" clip-rule="evenodd" d="M575.954 125.476C580.325 126.143 584.692 126.719 588.839 127.278C592.443 130.577 596.211 133.888 599.793 137.138C595.679 136.717 591.629 136.274 587.359 135.793C583.41 132.225 579.672 128.847 575.954 125.476Z" fill="#1A1A1A"/>
<path fill-rule="evenodd" clip-rule="evenodd" d="M602.207 130.118C605.967 130.722 609.448 131.137 612.718 131.558C616.096 134.644 619.505 137.684 622.707 140.792C619.491 140.458 616.199 140.125 612.548 139.66C609.15 136.507 605.767 133.412 602.207 130.121V130.118Z" fill="#1A1A1A"/>
<path fill-rule="evenodd" clip-rule="evenodd" d="M615.143 132.485C618.47 132.928 621.436 133.393 624.46 133.952C627.604 136.748 630.689 139.516 633.992 142.495C631.155 142.124 628.086 141.891 625.017 141.636C621.804 138.569 618.537 135.533 615.14 132.482L615.143 132.485Z" fill="#1A1A1A"/>
<path fill-rule="evenodd" clip-rule="evenodd" d="M505.739 103.676C512.303 104.703 518.502 105.619 524.461 106.646C528.742 110.201 532.803 113.855 537.195 117.858C531.189 116.941 525.124 116.288 518.928 115.488C514.511 111.413 510.149 107.546 505.742 103.673L505.739 103.676Z" fill="#1A1A1A"/>
<path fill-rule="evenodd" clip-rule="evenodd" d="M527.287 106.942C533.154 107.95 538.756 108.736 544.253 109.686C548.06 113.21 552.048 116.609 556.09 120.302C550.758 119.532 545.253 118.857 539.687 118.013C535.61 114.314 531.535 110.71 527.287 106.942Z" fill="#1A1A1A"/>
<path fill-rule="evenodd" clip-rule="evenodd" d="M512.095 93.8457C518.062 94.8949 523.782 96.0464 529.373 97.0873C533.395 100.639 537.327 104.047 541.266 107.465C535.99 106.563 530.262 105.691 524.253 104.672C520.284 101.148 516.142 97.5053 512.092 93.8457H512.095Z" fill="#1A1A1A"/>
<path fill-rule="evenodd" clip-rule="evenodd" d="M447.185 97.5747C455.769 98.7567 463.763 99.8557 471.366 100.645C476.425 104.994 481.057 109.456 485.539 113.642C478.159 113.024 470.299 112.138 461.965 111.244C457.224 106.729 452.294 102.153 447.188 97.5775L447.185 97.5747Z" fill="#1A1A1A"/>
<path fill-rule="evenodd" clip-rule="evenodd" d="M630.39 191.7C634.251 191.105 637.796 190.435 641.18 189.724C645.405 194.003 649.363 198.114 653.059 202.009C649.954 202.895 646.592 203.999 643.142 205.038C638.808 200.467 634.8 196.268 630.39 191.697V191.7Z" fill="#1A1A1A"/>
<path fill-rule="evenodd" clip-rule="evenodd" d="M616.215 194.671C620.604 193.923 624.682 193.079 628.659 192.273C632.913 196.786 637.144 201.129 641.402 205.619C637.757 206.804 633.863 207.958 629.875 209.121C625.365 204.216 620.669 199.299 616.215 194.671Z" fill="#1A1A1A"/>
<path fill-rule="evenodd" clip-rule="evenodd" d="M598.285 197.264C603.324 196.262 608.149 195.512 612.636 194.859C617.24 199.438 621.912 204.448 626.488 209.34C622.243 210.35 617.661 211.438 613.09 212.944C608.057 207.429 603.266 202.308 598.282 197.264H598.285Z" fill="#1A1A1A"/>
<path fill-rule="evenodd" clip-rule="evenodd" d="M579.849 200.52C585.526 199.415 591.117 198.167 596.023 197.201C601.051 202.469 606.14 207.662 610.945 213.046C606.104 214.522 600.981 216.133 595.39 217.45C590.267 211.767 585.103 206.253 579.849 200.523V200.52Z" fill="#1A1A1A"/>
<path fill-rule="evenodd" clip-rule="evenodd" d="M557.932 204.423C564.507 203.282 571.029 202.294 576.662 200.675C581.966 206.51 587.387 212.396 592.418 218.126C586.827 219.74 580.954 221.381 574.736 222.942C569.05 216.578 563.607 210.555 557.929 204.423H557.932Z" fill="#1A1A1A"/>
<path fill-rule="evenodd" clip-rule="evenodd" d="M533.101 209.66C540.827 208.069 547.932 206.646 554.61 205.134C560.343 211.418 566.135 217.697 571.793 224.243C564.825 226.167 558.398 228.567 551.023 230.447C544.93 223.457 538.907 216.498 533.101 209.66Z" fill="#1A1A1A"/>
<path fill-rule="evenodd" clip-rule="evenodd" d="M504.402 216.213C513.438 214.447 521.446 212.778 529.52 211.025C535.546 217.927 541.558 224.952 547.578 231.82C540.039 234.306 532.054 236.74 523.675 239.231C517.047 231.173 510.748 223.596 504.402 216.213Z" fill="#1A1A1A"/>
<path fill-rule="evenodd" clip-rule="evenodd" d="M205.685 176.32C211.374 171.785 216.943 167.209 222.032 163.032C230.254 167.675 238.44 171.999 246.707 176.901C242.094 181.704 237.526 186.739 232.005 191.891C223.091 186.637 214.184 181.413 205.688 176.32H205.685Z" fill="#1A1A1A"/>
<path fill-rule="evenodd" clip-rule="evenodd" d="M484.726 167.013C486.989 164.74 489.199 162.625 491.499 160.815C494.701 163.052 498.038 165.435 501.332 167.702C499.286 169.853 497.355 172.165 495.278 174.764C491.733 172.12 488.196 169.496 484.723 167.013H484.726Z" fill="#1A1A1A"/>
<path fill-rule="evenodd" clip-rule="evenodd" d="M574.29 83.05C575.17 81.7101 575.979 80.315 576.723 78.917C579.605 81.2949 582.682 83.8694 585.703 86.3774C585.232 87.9857 584.566 89.4557 583.813 91.0308C580.653 88.3816 577.439 85.6881 574.292 83.05H574.29Z" fill="#1A1A1A"/>
<path fill-rule="evenodd" clip-rule="evenodd" d="M106.427 315.482C113.537 309.931 120.243 304.614 126.757 299.933C135.238 302.535 143.561 305.616 152.293 308.556C145.961 313.671 139.728 319.2 133.323 325.157C124.215 321.741 114.897 318.663 106.424 315.479L106.427 315.482Z" fill="#1A1A1A"/>
<path fill-rule="evenodd" clip-rule="evenodd" d="M553.993 101.054C554.693 100.287 555.245 99.5401 555.794 98.8203C557.667 100.177 559.551 101.508 561.371 102.837C560.95 103.659 560.515 104.625 560.028 105.434C558.013 103.98 556.073 102.538 553.993 101.052V101.054Z" fill="#1A1A1A"/>
<path fill-rule="evenodd" clip-rule="evenodd" d="M489.451 65.9726C491.14 65.2556 492.74 64.6217 494.323 64.0376C496.712 65.657 499.097 67.3318 501.539 69.0979C500.207 69.898 498.744 70.6094 497.08 71.5284C494.593 69.5934 492.021 67.7858 489.451 65.9754V65.9726Z" fill="#1A1A1A"/>
<path fill-rule="evenodd" clip-rule="evenodd" d="M130.224 131.665C136.919 128.919 143.143 126.522 149.057 124.263C156.705 127.425 163.946 130.453 170.875 133.664C165.532 136.324 159.905 139.048 153.608 142.398C145.526 138.641 137.671 134.915 130.224 131.665Z" fill="#1A1A1A"/>
<path fill-rule="evenodd" clip-rule="evenodd" d="M516.83 61.693C517.85 61.2141 518.614 60.5857 519.422 60.1123C521.367 61.3802 523.221 62.8113 525.094 64.1927C524.408 64.7989 523.775 65.5159 522.948 66.0695C521.083 64.6494 518.959 63.1463 516.83 61.693Z" fill="#1A1A1A"/>
<path fill-rule="evenodd" clip-rule="evenodd" d="M559.392 51.2347C559.933 50.8416 560.524 50.5399 561.056 50.1772C562.458 51.2596 563.994 52.378 565.34 53.4105C564.874 53.8313 564.47 54.2576 564.055 54.7448C562.519 53.5905 560.925 52.414 559.392 51.2347Z" fill="#1A1A1A"/>
<path fill-rule="evenodd" clip-rule="evenodd" d="M101.286 221.78C106.052 219.507 109.909 217.362 113.979 215.308C119.954 216.993 125.676 218.519 131.379 220.169C127.881 222.275 123.92 224.731 119.729 227.056C113.483 225.362 107.365 223.518 101.286 221.78Z" fill="#1A1A1A"/>
<path fill-rule="evenodd" clip-rule="evenodd" d="M452.021 54.9774C453.693 54.4846 455.402 54.1469 456.848 53.6431C459.176 55.1573 461.634 56.7296 463.836 58.1885C462.434 58.8031 461.121 59.3263 459.572 59.902C457.255 58.3158 454.546 56.5663 452.021 54.9774Z" fill="#1A1A1A"/>
<path fill-rule="evenodd" clip-rule="evenodd" d="M513.644 17.545C514.706 17.3484 515.768 17.1795 516.81 17.127C518.561 18.2342 520.227 19.4993 521.902 20.7118C520.91 20.8834 519.912 21.0717 518.912 21.2904C517.122 19.9838 515.383 18.7408 513.644 17.545Z" fill="#1A1A1A"/>
<path fill-rule="evenodd" clip-rule="evenodd" d="M540.085 63.4011C541.05 63.0966 542 62.8807 542.889 62.6094C544.386 63.6834 546.08 64.8627 547.652 65.9257C546.758 66.2413 545.933 66.5347 545.032 66.8558C543.338 65.6821 541.774 64.5776 540.082 63.4011H540.085Z" fill="#1A1A1A"/>
<path fill-rule="evenodd" clip-rule="evenodd" d="M562.81 88.0992C563.774 87.7836 564.677 87.421 565.563 87.1885C566.974 88.1435 568.523 89.1678 570.012 90.12C569.117 90.4356 568.222 90.7678 567.389 91.1443C565.909 90.1394 564.357 89.129 562.81 88.0992Z" fill="#1A1A1A"/>
<path fill-rule="evenodd" clip-rule="evenodd" d="M412.774 101.309C414.867 100.764 416.874 100.207 418.802 99.6924C421.341 101.057 423.814 102.355 426.492 103.784C424.511 104.235 422.565 104.852 420.622 105.425C418.097 104.019 415.332 102.624 412.774 101.309Z" fill="#1A1A1A"/>
<path fill-rule="evenodd" clip-rule="evenodd" d="M586.159 109.716C587.054 109.404 587.957 108.991 588.779 108.662C590.165 109.583 591.413 110.428 592.734 111.327C591.982 111.676 591.224 112.069 590.393 112.49C589.005 111.532 587.612 110.696 586.159 109.714V109.716Z" fill="#1A1A1A"/>
<path fill-rule="evenodd" clip-rule="evenodd" d="M574.806 73.073C575.589 72.8709 576.356 72.7934 577.133 72.6494C578.273 73.4245 579.469 74.291 580.617 75.019C579.976 75.1574 579.196 75.3567 578.544 75.5782C577.278 74.7062 576.077 73.8647 574.806 73.0757V73.073Z" fill="#1A1A1A"/>
<path fill-rule="evenodd" clip-rule="evenodd" d="M0.00056839 272.785C6.3609 270.875 13.0863 268.607 19.8842 266.639C26.1805 267.985 32.9812 268.942 39.375 270.119C33.2627 271.985 26.6432 274.172 20.5281 276.339C13.3846 275.14 6.77619 274.036 0.00056839 272.787V272.785Z" fill="#1A1A1A"/>
<path fill-rule="evenodd" clip-rule="evenodd" d="M488.798 28.9585C490.2 29.0139 491.463 29.0277 492.725 29.0388C494.205 29.9772 495.749 30.9572 497.344 32.0063C496.087 31.9482 494.936 32.0534 493.667 32.0423C492.073 30.9959 490.476 29.9385 488.801 28.9585H488.798Z" fill="#1A1A1A"/>
<path fill-rule="evenodd" clip-rule="evenodd" d="M314.123 149.496C317.289 148.726 320.681 148.266 323.911 147.569C327.094 148.673 329.99 149.639 332.836 150.774C329.904 151.311 326.729 152.067 323.415 152.823C320.319 151.682 317.139 150.586 314.126 149.496H314.123Z" fill="#1A1A1A"/>
<path fill-rule="evenodd" clip-rule="evenodd" d="M324.932 206.848C327.789 205.068 330.615 203.296 333.458 201.754C337.438 203.28 341.496 205.074 345.582 206.804C342.937 208.561 340.309 210.275 337.653 212.274C333.224 210.269 329.029 208.589 324.932 206.845V206.848Z" fill="#1A1A1A"/>
<path fill-rule="evenodd" clip-rule="evenodd" d="M394.107 136.025C396.683 134.558 399.057 133.249 401.262 131.973C404.651 133.847 408.182 135.837 411.711 137.863C409.492 139.223 407.511 140.856 405.038 142.259C401.287 140.158 397.705 138.068 394.107 136.025Z" fill="#1A1A1A"/>
</g>
<defs>
<clipPath id="clip0_4_50894">
<rect width="725" height="394" fill="white" transform="matrix(-1 0 0 1 725 0)"/>
</clipPath>
</defs>
</svg>
