<svg width="24" height="24" viewBox="0 0 24 24" fill="none" xmlns="http://www.w3.org/2000/svg">
    <g clip-path="url(#clip0_4_47309)">
        <path d="M12.0118 19.4599C9.01357 19.4599 6.01615 19.4599 3.01794 19.4599C2.71481 19.4599 2.57466 19.5987 2.57466 19.8979C2.57466 19.9754 2.5786 20.053 2.57388 20.1297C2.56758 20.2227 2.55813 20.3157 2.54081 20.4064C2.47625 20.7374 2.15895 21.0026 1.77945 20.9987C1.39837 20.9948 1.08265 20.7119 1.02517 20.3483C1.01178 20.263 1.0047 20.1754 1.0047 20.0894C1.00391 18.3281 0.9921 16.5661 1.00863 14.8049C1.01808 13.7785 1.39758 12.8855 2.12509 12.1421C2.56679 11.6909 3.09195 11.37 3.69269 11.1654C4.1651 11.0049 4.65326 10.9561 5.15086 10.9561C9.76234 10.9576 14.3738 10.9537 18.9853 10.9592C20.3364 10.9607 21.4308 11.4971 22.2418 12.5638C22.6402 13.0886 22.8779 13.6847 22.959 14.3359C22.9866 14.5553 22.9984 14.7785 22.9992 15.0002C23.0023 16.7103 23.0015 18.4204 23.0008 20.1305C23.0008 20.3979 22.9338 20.6413 22.7102 20.8181C22.474 21.0049 22.2103 21.0537 21.9292 20.9398C21.6599 20.8297 21.4898 20.6274 21.4513 20.3382C21.4316 20.1925 21.4339 20.0429 21.43 19.8956C21.4237 19.6576 21.3237 19.5142 21.1237 19.47C21.0796 19.4599 21.0332 19.4607 20.9875 19.4607C17.9964 19.4607 15.0053 19.4607 12.0134 19.4607L12.0118 19.4599Z" fill="white"/>
        <path d="M11.9023 4C13.8471 4 15.791 4 17.735 4C18.3861 4 18.9947 4.14341 19.5199 4.53953C20.1954 5.04884 20.5899 5.71938 20.623 6.56124C20.6513 7.27519 20.6387 7.9907 20.6419 8.70543C20.6442 9.16589 20.6419 9.62636 20.6419 10.0868C20.6419 10.1279 20.6395 10.1713 20.6285 10.2109C20.5946 10.3357 20.5261 10.3853 20.397 10.3612C20.2561 10.3349 20.1199 10.2783 19.9789 10.2628C19.6475 10.2271 19.3152 10.2023 18.9821 10.1853C18.7601 10.1736 18.6916 10.1341 18.6601 9.91938C18.5593 9.23876 17.9192 8.62636 17.1004 8.63566C16.1871 8.64574 15.2738 8.63798 14.3612 8.63798C13.6817 8.63798 13.1015 9.03643 12.8708 9.66434C12.8377 9.75426 12.8251 9.85194 12.8078 9.94651C12.7755 10.1163 12.7117 10.1798 12.5401 10.1822C12.1803 10.186 11.8197 10.186 11.4599 10.1822C11.2945 10.1806 11.2292 10.1163 11.1992 9.92791C11.1575 9.66357 11.0536 9.42791 10.8835 9.22093C10.5757 8.84574 10.1773 8.64186 9.68596 8.63953C8.74351 8.63488 7.80106 8.63721 6.85782 8.63876C6.06575 8.63953 5.44611 9.24884 5.34533 9.91783C5.31305 10.1341 5.2477 10.1721 5.02567 10.186C4.65798 10.2101 4.29029 10.2442 3.92338 10.2829C3.81079 10.2946 3.70293 10.3426 3.59113 10.3612C3.47066 10.3806 3.41476 10.3403 3.3809 10.224C3.36752 10.1783 3.36122 10.1295 3.36122 10.0814C3.36043 8.97674 3.34547 7.87209 3.36437 6.76744C3.38405 5.61163 3.92653 4.76202 4.98788 4.24806C5.40832 4.04574 5.86419 4 6.32557 4C8.1845 4 10.0434 4 11.9023 4Z" fill="white"/>
    </g>
    <defs>
        <clipPath id="clip0_4_47309">
            <rect width="22" height="17" fill="white" transform="translate(1 4)"/>
        </clipPath>
    </defs>
</svg>
