<svg width="24" height="24" viewBox="0 0 24 24" fill="none" xmlns="http://www.w3.org/2000/svg">
    <g clip-path="url(#clip0_4_47315)">
        <path d="M2.26958 15.7617H12.1102V17.5698H18.2616V15.7657H20.7055C20.8638 17.916 20.8763 19.8305 18.6708 21.2899C18.6439 21.3076 18.6222 21.3319 18.5624 21.3851C18.8337 21.6104 19.101 21.833 19.3657 22.0531C19.0084 22.3946 18.7214 22.6691 18.3923 22.9844C18.102 22.6849 17.7881 22.3374 17.4459 22.0209C17.3454 21.9276 17.1674 21.8895 17.0216 21.8803C16.7832 21.8659 16.5415 21.9046 16.3011 21.9053C13.1059 21.9072 9.9106 21.9066 6.71469 21.9066C6.56166 21.9066 6.39812 21.9361 6.25691 21.8935C5.83066 21.7654 5.56006 21.9631 5.30654 22.2685C5.09046 22.5286 4.84417 22.763 4.61889 23.0008C4.3148 22.6809 4.03961 22.3919 3.73486 22.0708C3.93912 21.8902 4.19855 21.6603 4.49016 21.4015C4.28919 21.2577 4.13878 21.1579 3.99626 21.0475C2.92833 20.2246 2.35102 19.133 2.27549 17.7925C2.23805 17.1285 2.26892 16.4605 2.26892 15.7617H2.26958Z" fill="white"/>
        <path d="M2.27542 10.7872C2.27017 10.6683 2.26097 10.5613 2.26097 10.4542C2.26031 8.71375 2.25834 6.97393 2.26097 5.23345C2.2636 3.3209 3.59096 1.98631 5.50088 2.00011C6.14191 2.0047 6.80263 1.99157 7.41869 2.13672C8.51158 2.39483 9.19989 3.15276 9.53222 4.22069C9.59659 4.42824 9.68 4.52872 9.9079 4.59046C11.1939 4.93921 12.0963 6.14113 12.1127 7.48228C12.1154 7.69836 12.1127 7.91444 12.1127 8.14891H6.02565C5.73536 6.61401 6.56947 5.02985 8.31323 4.53529C8.1556 3.85027 7.48109 3.2723 6.77308 3.24734C6.2378 3.22829 5.70055 3.22632 5.16527 3.24734C4.24249 3.28346 3.50032 4.13071 3.49638 5.14676C3.48981 6.89774 3.49441 8.64938 3.49441 10.4004C3.49441 10.5199 3.49441 10.6394 3.49441 10.7866H2.27411L2.27542 10.7872Z" fill="white"/>
        <path d="M12.0931 14.5328C11.9644 14.5328 11.8678 14.5328 11.7713 14.5328C8.64366 14.5328 5.5154 14.5335 2.38779 14.5321C1.71459 14.5321 1.23054 14.2136 1.06043 13.6698C0.804289 12.8514 1.38423 12.0633 2.26826 12.0515C3.20877 12.039 4.14929 12.0482 5.0898 12.0482C7.29922 12.0482 9.50799 12.0482 11.7174 12.0482C11.8356 12.0482 11.9538 12.0482 12.0931 12.0482V14.5321V14.5328Z" fill="white"/>
        <path d="M17.0236 16.3712H13.3633C13.3574 16.2556 13.3475 16.1506 13.3475 16.0455C13.3462 14.7772 13.3462 13.5083 13.3475 12.2401C13.3482 11.3225 13.8493 10.8181 14.7629 10.8142C15.1018 10.8129 15.4407 10.8057 15.7796 10.8162C16.5408 10.8405 17.038 11.3521 17.04 12.1153C17.0439 13.4387 17.0413 14.7615 17.04 16.0849C17.04 16.1709 17.0308 16.2563 17.0236 16.3712Z" fill="white"/>
        <path d="M18.2832 14.5208V12.048C18.8782 12.048 19.4648 12.046 20.0506 12.0486C20.356 12.0499 20.668 12.025 20.9668 12.0742C21.619 12.182 22.0433 12.7159 22.0164 13.3392C21.9901 13.9507 21.5389 14.4754 20.8985 14.5089C20.0394 14.5543 19.1764 14.5201 18.2839 14.5201L18.2832 14.5208Z" fill="white"/>
    </g>
    <defs>
        <clipPath id="clip0_4_47315">
            <rect width="21.0171" height="21" fill="white" transform="translate(1 2)"/>
        </clipPath>
    </defs>
</svg>
