<svg width="22" height="21" viewBox="0 0 22 21" fill="none" xmlns="http://www.w3.org/2000/svg">
    <path d="M9.81217 0.459372C10.2058 -0.153391 11.1014 -0.153391 11.495 0.459372L14.534 5.19083C14.6694 5.40166 14.879 5.55397 15.1214 5.61761L20.5604 7.0458C21.2648 7.23076 21.5416 8.08255 21.0804 8.64622L17.5196 12.9986C17.361 13.1926 17.2809 13.439 17.2953 13.6892L17.6177 19.3033C17.6595 20.0304 16.9349 20.5568 16.2563 20.2924L11.0166 18.2509C10.7831 18.1599 10.524 18.1599 10.2905 18.2509L5.05082 20.2924C4.37223 20.5568 3.64766 20.0304 3.68942 19.3033L4.01187 13.6892C4.02624 13.439 3.94616 13.1926 3.7875 12.9986L0.226727 8.64622C-0.234423 8.08255 0.0423396 7.23076 0.746734 7.0458L6.18573 5.61761C6.42809 5.55397 6.63773 5.40166 6.77314 5.19083L9.81217 0.459372Z" fill="#FFE600"/>
</svg>
